ISO-10303-21;
HEADER;
/* Generated by software containing ST-Developer
 * from STEP Tools, Inc. (www.steptools.com) 
 */

FILE_DESCRIPTION(
/* description */ (''),
/* implementation_level */ '2;1');

FILE_NAME(
/* name */ 'STEP FILES UPDATED.step',
/* time_stamp */ '2026-09-28T20:04:42-05:00',
/* author */ (''),
/* organization */ (''),
/* preprocessor_version */ 'ST-DEVELOPER v20.2',
/* originating_system */ 'Autodesk Translation Framework v15.15.0.0',
/* authorisation */ '');

FILE_SCHEMA (('AUTOMOTIVE_DESIGN { 1 0 10303 214 3 1 1 }'));
ENDSEC;

DATA;
#10=MECHANICAL_DESIGN_GEOMETRIC_PRESENTATION_REPRESENTATION('',(#25,#26),
#1612);
#11=SHAPE_REPRESENTATION_RELATIONSHIP('SRR','None',#1619,#12);
#12=ADVANCED_BREP_SHAPE_REPRESENTATION('',(#27,#28),#1611);
#13=CYLINDRICAL_SURFACE('',#1068,1.4);
#14=CYLINDRICAL_SURFACE('',#1070,1.4);
#15=CYLINDRICAL_SURFACE('',#1072,1.4);
#16=CYLINDRICAL_SURFACE('',#1074,1.4);
#17=CIRCLE('',#1057,1.4);
#18=CIRCLE('',#1058,1.4);
#19=CIRCLE('',#1059,1.4);
#20=CIRCLE('',#1060,1.4);
#21=CIRCLE('',#1069,1.4);
#22=CIRCLE('',#1071,1.4);
#23=CIRCLE('',#1073,1.4);
#24=CIRCLE('',#1075,1.4);
#25=STYLED_ITEM('',(#1628),#27);
#26=STYLED_ITEM('',(#1628),#28);
#27=MANIFOLD_SOLID_BREP('Body1',#1010);
#28=MANIFOLD_SOLID_BREP('Body4',#1011);
#29=FACE_BOUND('',#120,.T.);
#30=FACE_BOUND('',#122,.T.);
#31=FACE_BOUND('',#128,.T.);
#32=FACE_BOUND('',#133,.T.);
#33=FACE_BOUND('',#134,.T.);
#34=FACE_BOUND('',#135,.T.);
#35=FACE_BOUND('',#136,.T.);
#36=FACE_BOUND('',#137,.T.);
#37=FACE_BOUND('',#138,.T.);
#38=FACE_BOUND('',#139,.T.);
#39=FACE_BOUND('',#158,.T.);
#40=FACE_BOUND('',#159,.T.);
#41=FACE_BOUND('',#160,.T.);
#42=FACE_BOUND('',#161,.T.);
#43=FACE_BOUND('',#162,.T.);
#44=FACE_BOUND('',#163,.T.);
#45=FACE_BOUND('',#164,.T.);
#46=FACE_OUTER_BOUND('',#98,.T.);
#47=FACE_OUTER_BOUND('',#99,.T.);
#48=FACE_OUTER_BOUND('',#100,.T.);
#49=FACE_OUTER_BOUND('',#101,.T.);
#50=FACE_OUTER_BOUND('',#102,.T.);
#51=FACE_OUTER_BOUND('',#103,.T.);
#52=FACE_OUTER_BOUND('',#104,.T.);
#53=FACE_OUTER_BOUND('',#105,.T.);
#54=FACE_OUTER_BOUND('',#106,.T.);
#55=FACE_OUTER_BOUND('',#107,.T.);
#56=FACE_OUTER_BOUND('',#108,.T.);
#57=FACE_OUTER_BOUND('',#109,.T.);
#58=FACE_OUTER_BOUND('',#110,.T.);
#59=FACE_OUTER_BOUND('',#111,.T.);
#60=FACE_OUTER_BOUND('',#112,.T.);
#61=FACE_OUTER_BOUND('',#113,.T.);
#62=FACE_OUTER_BOUND('',#114,.T.);
#63=FACE_OUTER_BOUND('',#115,.T.);
#64=FACE_OUTER_BOUND('',#116,.T.);
#65=FACE_OUTER_BOUND('',#117,.T.);
#66=FACE_OUTER_BOUND('',#118,.T.);
#67=FACE_OUTER_BOUND('',#119,.T.);
#68=FACE_OUTER_BOUND('',#121,.T.);
#69=FACE_OUTER_BOUND('',#123,.T.);
#70=FACE_OUTER_BOUND('',#124,.T.);
#71=FACE_OUTER_BOUND('',#125,.T.);
#72=FACE_OUTER_BOUND('',#126,.T.);
#73=FACE_OUTER_BOUND('',#127,.T.);
#74=FACE_OUTER_BOUND('',#129,.T.);
#75=FACE_OUTER_BOUND('',#130,.T.);
#76=FACE_OUTER_BOUND('',#131,.T.);
#77=FACE_OUTER_BOUND('',#132,.T.);
#78=FACE_OUTER_BOUND('',#140,.T.);
#79=FACE_OUTER_BOUND('',#141,.T.);
#80=FACE_OUTER_BOUND('',#142,.T.);
#81=FACE_OUTER_BOUND('',#143,.T.);
#82=FACE_OUTER_BOUND('',#144,.T.);
#83=FACE_OUTER_BOUND('',#145,.T.);
#84=FACE_OUTER_BOUND('',#146,.T.);
#85=FACE_OUTER_BOUND('',#147,.T.);
#86=FACE_OUTER_BOUND('',#148,.T.);
#87=FACE_OUTER_BOUND('',#149,.T.);
#88=FACE_OUTER_BOUND('',#150,.T.);
#89=FACE_OUTER_BOUND('',#151,.T.);
#90=FACE_OUTER_BOUND('',#152,.T.);
#91=FACE_OUTER_BOUND('',#153,.T.);
#92=FACE_OUTER_BOUND('',#154,.T.);
#93=FACE_OUTER_BOUND('',#155,.T.);
#94=FACE_OUTER_BOUND('',#156,.T.);
#95=FACE_OUTER_BOUND('',#157,.T.);
#96=FACE_OUTER_BOUND('',#165,.T.);
#97=FACE_OUTER_BOUND('',#166,.T.);
#98=EDGE_LOOP('',(#642,#643,#644,#645));
#99=EDGE_LOOP('',(#646,#647,#648,#649));
#100=EDGE_LOOP('',(#650,#651,#652,#653));
#101=EDGE_LOOP('',(#654,#655,#656,#657));
#102=EDGE_LOOP('',(#658,#659,#660,#661));
#103=EDGE_LOOP('',(#662,#663,#664,#665,#666,#667,#668,#669));
#104=EDGE_LOOP('',(#670,#671,#672,#673));
#105=EDGE_LOOP('',(#674,#675,#676,#677));
#106=EDGE_LOOP('',(#678,#679,#680,#681));
#107=EDGE_LOOP('',(#682,#683,#684,#685,#686,#687,#688,#689));
#108=EDGE_LOOP('',(#690,#691,#692,#693));
#109=EDGE_LOOP('',(#694,#695,#696,#697));
#110=EDGE_LOOP('',(#698,#699,#700,#701));
#111=EDGE_LOOP('',(#702,#703,#704));
#112=EDGE_LOOP('',(#705,#706,#707,#708));
#113=EDGE_LOOP('',(#709,#710,#711,#712));
#114=EDGE_LOOP('',(#713,#714,#715,#716));
#115=EDGE_LOOP('',(#717,#718,#719,#720));
#116=EDGE_LOOP('',(#721,#722,#723,#724));
#117=EDGE_LOOP('',(#725,#726,#727,#728));
#118=EDGE_LOOP('',(#729,#730,#731,#732));
#119=EDGE_LOOP('',(#733,#734,#735,#736));
#120=EDGE_LOOP('',(#737,#738,#739,#740));
#121=EDGE_LOOP('',(#741,#742,#743,#744));
#122=EDGE_LOOP('',(#745,#746,#747,#748));
#123=EDGE_LOOP('',(#749,#750,#751,#752,#753));
#124=EDGE_LOOP('',(#754,#755,#756,#757));
#125=EDGE_LOOP('',(#758,#759,#760,#761));
#126=EDGE_LOOP('',(#762,#763,#764,#765,#766,#767));
#127=EDGE_LOOP('',(#768,#769,#770,#771,#772,#773));
#128=EDGE_LOOP('',(#774,#775,#776,#777));
#129=EDGE_LOOP('',(#778,#779,#780,#781));
#130=EDGE_LOOP('',(#782,#783,#784,#785));
#131=EDGE_LOOP('',(#786,#787,#788,#789));
#132=EDGE_LOOP('',(#790,#791,#792,#793,#794,#795));
#133=EDGE_LOOP('',(#796));
#134=EDGE_LOOP('',(#797));
#135=EDGE_LOOP('',(#798));
#136=EDGE_LOOP('',(#799));
#137=EDGE_LOOP('',(#800,#801,#802,#803));
#138=EDGE_LOOP('',(#804,#805,#806,#807));
#139=EDGE_LOOP('',(#808,#809,#810,#811));
#140=EDGE_LOOP('',(#812,#813,#814,#815));
#141=EDGE_LOOP('',(#816,#817,#818,#819));
#142=EDGE_LOOP('',(#820,#821,#822,#823));
#143=EDGE_LOOP('',(#824,#825,#826,#827));
#144=EDGE_LOOP('',(#828,#829,#830,#831));
#145=EDGE_LOOP('',(#832,#833,#834,#835));
#146=EDGE_LOOP('',(#836,#837,#838,#839));
#147=EDGE_LOOP('',(#840,#841,#842,#843));
#148=EDGE_LOOP('',(#844,#845,#846,#847));
#149=EDGE_LOOP('',(#848,#849,#850,#851));
#150=EDGE_LOOP('',(#852,#853,#854,#855));
#151=EDGE_LOOP('',(#856,#857,#858,#859));
#152=EDGE_LOOP('',(#860,#861,#862,#863));
#153=EDGE_LOOP('',(#864,#865,#866,#867));
#154=EDGE_LOOP('',(#868,#869,#870,#871));
#155=EDGE_LOOP('',(#872,#873,#874,#875));
#156=EDGE_LOOP('',(#876,#877,#878,#879));
#157=EDGE_LOOP('',(#880,#881,#882,#883,#884,#885));
#158=EDGE_LOOP('',(#886));
#159=EDGE_LOOP('',(#887));
#160=EDGE_LOOP('',(#888));
#161=EDGE_LOOP('',(#889));
#162=EDGE_LOOP('',(#890,#891,#892,#893));
#163=EDGE_LOOP('',(#894,#895,#896,#897));
#164=EDGE_LOOP('',(#898,#899,#900,#901));
#165=EDGE_LOOP('',(#902,#903,#904,#905));
#166=EDGE_LOOP('',(#906,#907,#908,#909));
#167=LINE('',#1337,#293);
#168=LINE('',#1339,#294);
#169=LINE('',#1341,#295);
#170=LINE('',#1342,#296);
#171=LINE('',#1345,#297);
#172=LINE('',#1347,#298);
#173=LINE('',#1348,#299);
#174=LINE('',#1351,#300);
#175=LINE('',#1353,#301);
#176=LINE('',#1354,#302);
#177=LINE('',#1356,#303);
#178=LINE('',#1357,#304);
#179=LINE('',#1362,#305);
#180=LINE('',#1364,#306);
#181=LINE('',#1366,#307);
#182=LINE('',#1368,#308);
#183=LINE('',#1370,#309);
#184=LINE('',#1372,#310);
#185=LINE('',#1374,#311);
#186=LINE('',#1375,#312);
#187=LINE('',#1378,#313);
#188=LINE('',#1380,#314);
#189=LINE('',#1381,#315);
#190=LINE('',#1384,#316);
#191=LINE('',#1385,#317);
#192=LINE('',#1388,#318);
#193=LINE('',#1389,#319);
#194=LINE('',#1391,#320);
#195=LINE('',#1393,#321);
#196=LINE('',#1395,#322);
#197=LINE('',#1396,#323);
#198=LINE('',#1400,#324);
#199=LINE('',#1402,#325);
#200=LINE('',#1404,#326);
#201=LINE('',#1405,#327);
#202=LINE('',#1409,#328);
#203=LINE('',#1411,#329);
#204=LINE('',#1413,#330);
#205=LINE('',#1414,#331);
#206=LINE('',#1417,#332);
#207=LINE('',#1419,#333);
#208=LINE('',#1420,#334);
#209=LINE('',#1424,#335);
#210=LINE('',#1426,#336);
#211=LINE('',#1427,#337);
#212=LINE('',#1430,#338);
#213=LINE('',#1432,#339);
#214=LINE('',#1433,#340);
#215=LINE('',#1435,#341);
#216=LINE('',#1436,#342);
#217=LINE('',#1440,#343);
#218=LINE('',#1441,#344);
#219=LINE('',#1444,#345);
#220=LINE('',#1445,#346);
#221=LINE('',#1447,#347);
#222=LINE('',#1451,#348);
#223=LINE('',#1453,#349);
#224=LINE('',#1454,#350);
#225=LINE('',#1457,#351);
#226=LINE('',#1458,#352);
#227=LINE('',#1461,#353);
#228=LINE('',#1462,#354);
#229=LINE('',#1463,#355);
#230=LINE('',#1466,#356);
#231=LINE('',#1467,#357);
#232=LINE('',#1470,#358);
#233=LINE('',#1471,#359);
#234=LINE('',#1473,#360);
#235=LINE('',#1478,#361);
#236=LINE('',#1480,#362);
#237=LINE('',#1482,#363);
#238=LINE('',#1483,#364);
#239=LINE('',#1486,#365);
#240=LINE('',#1488,#366);
#241=LINE('',#1489,#367);
#242=LINE('',#1492,#368);
#243=LINE('',#1494,#369);
#244=LINE('',#1495,#370);
#245=LINE('',#1498,#371);
#246=LINE('',#1500,#372);
#247=LINE('',#1501,#373);
#248=LINE('',#1512,#374);
#249=LINE('',#1514,#375);
#250=LINE('',#1516,#376);
#251=LINE('',#1517,#377);
#252=LINE('',#1520,#378);
#253=LINE('',#1522,#379);
#254=LINE('',#1524,#380);
#255=LINE('',#1525,#381);
#256=LINE('',#1528,#382);
#257=LINE('',#1530,#383);
#258=LINE('',#1532,#384);
#259=LINE('',#1533,#385);
#260=LINE('',#1536,#386);
#261=LINE('',#1538,#387);
#262=LINE('',#1539,#388);
#263=LINE('',#1542,#389);
#264=LINE('',#1543,#390);
#265=LINE('',#1546,#391);
#266=LINE('',#1548,#392);
#267=LINE('',#1549,#393);
#268=LINE('',#1552,#394);
#269=LINE('',#1553,#395);
#270=LINE('',#1556,#396);
#271=LINE('',#1558,#397);
#272=LINE('',#1559,#398);
#273=LINE('',#1562,#399);
#274=LINE('',#1563,#400);
#275=LINE('',#1566,#401);
#276=LINE('',#1567,#402);
#277=LINE('',#1571,#403);
#278=LINE('',#1575,#404);
#279=LINE('',#1579,#405);
#280=LINE('',#1583,#406);
#281=LINE('',#1586,#407);
#282=LINE('',#1587,#408);
#283=LINE('',#1589,#409);
#284=LINE('',#1592,#410);
#285=LINE('',#1593,#411);
#286=LINE('',#1595,#412);
#287=LINE('',#1598,#413);
#288=LINE('',#1599,#414);
#289=LINE('',#1601,#415);
#290=LINE('',#1604,#416);
#291=LINE('',#1605,#417);
#292=LINE('',#1607,#418);
#293=VECTOR('',#1089,10.);
#294=VECTOR('',#1090,10.);
#295=VECTOR('',#1091,10.);
#296=VECTOR('',#1092,10.);
#297=VECTOR('',#1095,10.);
#298=VECTOR('',#1096,10.);
#299=VECTOR('',#1097,10.);
#300=VECTOR('',#1100,10.);
#301=VECTOR('',#1101,10.);
#302=VECTOR('',#1102,10.);
#303=VECTOR('',#1105,10.);
#304=VECTOR('',#1106,10.);
#305=VECTOR('',#1111,10.);
#306=VECTOR('',#1112,10.);
#307=VECTOR('',#1113,10.);
#308=VECTOR('',#1114,10.);
#309=VECTOR('',#1115,10.);
#310=VECTOR('',#1116,10.);
#311=VECTOR('',#1117,10.);
#312=VECTOR('',#1118,10.);
#313=VECTOR('',#1121,10.);
#314=VECTOR('',#1122,10.);
#315=VECTOR('',#1123,10.);
#316=VECTOR('',#1126,10.);
#317=VECTOR('',#1127,10.);
#318=VECTOR('',#1130,10.);
#319=VECTOR('',#1131,10.);
#320=VECTOR('',#1134,10.);
#321=VECTOR('',#1135,10.);
#322=VECTOR('',#1136,10.);
#323=VECTOR('',#1137,10.);
#324=VECTOR('',#1140,10.);
#325=VECTOR('',#1141,10.);
#326=VECTOR('',#1142,10.);
#327=VECTOR('',#1143,10.);
#328=VECTOR('',#1146,10.);
#329=VECTOR('',#1147,10.);
#330=VECTOR('',#1148,10.);
#331=VECTOR('',#1149,10.);
#332=VECTOR('',#1152,10.);
#333=VECTOR('',#1153,10.);
#334=VECTOR('',#1154,10.);
#335=VECTOR('',#1157,10.);
#336=VECTOR('',#1158,10.);
#337=VECTOR('',#1159,10.);
#338=VECTOR('',#1162,10.);
#339=VECTOR('',#1163,10.);
#340=VECTOR('',#1164,10.);
#341=VECTOR('',#1167,10.);
#342=VECTOR('',#1168,10.);
#343=VECTOR('',#1173,10.);
#344=VECTOR('',#1174,10.);
#345=VECTOR('',#1177,10.);
#346=VECTOR('',#1178,10.);
#347=VECTOR('',#1181,10.);
#348=VECTOR('',#1186,10.);
#349=VECTOR('',#1187,10.);
#350=VECTOR('',#1188,10.);
#351=VECTOR('',#1191,10.);
#352=VECTOR('',#1192,10.);
#353=VECTOR('',#1195,10.);
#354=VECTOR('',#1196,10.);
#355=VECTOR('',#1197,10.);
#356=VECTOR('',#1200,10.);
#357=VECTOR('',#1201,10.);
#358=VECTOR('',#1204,10.);
#359=VECTOR('',#1205,10.);
#360=VECTOR('',#1208,10.);
#361=VECTOR('',#1213,10.);
#362=VECTOR('',#1214,10.);
#363=VECTOR('',#1215,10.);
#364=VECTOR('',#1216,10.);
#365=VECTOR('',#1219,10.);
#366=VECTOR('',#1220,10.);
#367=VECTOR('',#1221,10.);
#368=VECTOR('',#1224,10.);
#369=VECTOR('',#1225,10.);
#370=VECTOR('',#1226,10.);
#371=VECTOR('',#1229,10.);
#372=VECTOR('',#1230,10.);
#373=VECTOR('',#1231,10.);
#374=VECTOR('',#1240,10.);
#375=VECTOR('',#1241,10.);
#376=VECTOR('',#1242,10.);
#377=VECTOR('',#1243,10.);
#378=VECTOR('',#1244,10.);
#379=VECTOR('',#1245,10.);
#380=VECTOR('',#1246,10.);
#381=VECTOR('',#1247,10.);
#382=VECTOR('',#1248,10.);
#383=VECTOR('',#1249,10.);
#384=VECTOR('',#1250,10.);
#385=VECTOR('',#1251,10.);
#386=VECTOR('',#1254,10.);
#387=VECTOR('',#1255,10.);
#388=VECTOR('',#1256,10.);
#389=VECTOR('',#1259,10.);
#390=VECTOR('',#1260,10.);
#391=VECTOR('',#1263,10.);
#392=VECTOR('',#1264,10.);
#393=VECTOR('',#1265,10.);
#394=VECTOR('',#1268,10.);
#395=VECTOR('',#1269,10.);
#396=VECTOR('',#1272,10.);
#397=VECTOR('',#1273,10.);
#398=VECTOR('',#1274,10.);
#399=VECTOR('',#1277,10.);
#400=VECTOR('',#1278,10.);
#401=VECTOR('',#1281,10.);
#402=VECTOR('',#1282,10.);
#403=VECTOR('',#1287,1.4);
#404=VECTOR('',#1292,1.4);
#405=VECTOR('',#1297,1.4);
#406=VECTOR('',#1302,1.4);
#407=VECTOR('',#1305,10.);
#408=VECTOR('',#1306,10.);
#409=VECTOR('',#1309,10.);
#410=VECTOR('',#1312,10.);
#411=VECTOR('',#1313,10.);
#412=VECTOR('',#1316,10.);
#413=VECTOR('',#1319,10.);
#414=VECTOR('',#1320,10.);
#415=VECTOR('',#1323,10.);
#416=VECTOR('',#1326,10.);
#417=VECTOR('',#1327,10.);
#418=VECTOR('',#1330,10.);
#419=VERTEX_POINT('',#1335);
#420=VERTEX_POINT('',#1336);
#421=VERTEX_POINT('',#1338);
#422=VERTEX_POINT('',#1340);
#423=VERTEX_POINT('',#1344);
#424=VERTEX_POINT('',#1346);
#425=VERTEX_POINT('',#1350);
#426=VERTEX_POINT('',#1352);
#427=VERTEX_POINT('',#1360);
#428=VERTEX_POINT('',#1361);
#429=VERTEX_POINT('',#1363);
#430=VERTEX_POINT('',#1365);
#431=VERTEX_POINT('',#1367);
#432=VERTEX_POINT('',#1369);
#433=VERTEX_POINT('',#1371);
#434=VERTEX_POINT('',#1373);
#435=VERTEX_POINT('',#1377);
#436=VERTEX_POINT('',#1379);
#437=VERTEX_POINT('',#1383);
#438=VERTEX_POINT('',#1387);
#439=VERTEX_POINT('',#1392);
#440=VERTEX_POINT('',#1394);
#441=VERTEX_POINT('',#1398);
#442=VERTEX_POINT('',#1399);
#443=VERTEX_POINT('',#1401);
#444=VERTEX_POINT('',#1403);
#445=VERTEX_POINT('',#1407);
#446=VERTEX_POINT('',#1408);
#447=VERTEX_POINT('',#1410);
#448=VERTEX_POINT('',#1412);
#449=VERTEX_POINT('',#1416);
#450=VERTEX_POINT('',#1418);
#451=VERTEX_POINT('',#1422);
#452=VERTEX_POINT('',#1423);
#453=VERTEX_POINT('',#1425);
#454=VERTEX_POINT('',#1429);
#455=VERTEX_POINT('',#1431);
#456=VERTEX_POINT('',#1439);
#457=VERTEX_POINT('',#1443);
#458=VERTEX_POINT('',#1450);
#459=VERTEX_POINT('',#1452);
#460=VERTEX_POINT('',#1456);
#461=VERTEX_POINT('',#1460);
#462=VERTEX_POINT('',#1465);
#463=VERTEX_POINT('',#1469);
#464=VERTEX_POINT('',#1476);
#465=VERTEX_POINT('',#1477);
#466=VERTEX_POINT('',#1479);
#467=VERTEX_POINT('',#1481);
#468=VERTEX_POINT('',#1485);
#469=VERTEX_POINT('',#1487);
#470=VERTEX_POINT('',#1491);
#471=VERTEX_POINT('',#1493);
#472=VERTEX_POINT('',#1497);
#473=VERTEX_POINT('',#1499);
#474=VERTEX_POINT('',#1502);
#475=VERTEX_POINT('',#1504);
#476=VERTEX_POINT('',#1506);
#477=VERTEX_POINT('',#1508);
#478=VERTEX_POINT('',#1510);
#479=VERTEX_POINT('',#1511);
#480=VERTEX_POINT('',#1513);
#481=VERTEX_POINT('',#1515);
#482=VERTEX_POINT('',#1518);
#483=VERTEX_POINT('',#1519);
#484=VERTEX_POINT('',#1521);
#485=VERTEX_POINT('',#1523);
#486=VERTEX_POINT('',#1526);
#487=VERTEX_POINT('',#1527);
#488=VERTEX_POINT('',#1529);
#489=VERTEX_POINT('',#1531);
#490=VERTEX_POINT('',#1535);
#491=VERTEX_POINT('',#1537);
#492=VERTEX_POINT('',#1541);
#493=VERTEX_POINT('',#1545);
#494=VERTEX_POINT('',#1547);
#495=VERTEX_POINT('',#1551);
#496=VERTEX_POINT('',#1555);
#497=VERTEX_POINT('',#1557);
#498=VERTEX_POINT('',#1561);
#499=VERTEX_POINT('',#1565);
#500=VERTEX_POINT('',#1569);
#501=VERTEX_POINT('',#1573);
#502=VERTEX_POINT('',#1577);
#503=VERTEX_POINT('',#1581);
#504=VERTEX_POINT('',#1585);
#505=VERTEX_POINT('',#1591);
#506=VERTEX_POINT('',#1597);
#507=VERTEX_POINT('',#1603);
#508=EDGE_CURVE('',#419,#420,#167,.T.);
#509=EDGE_CURVE('',#419,#421,#168,.T.);
#510=EDGE_CURVE('',#422,#421,#169,.T.);
#511=EDGE_CURVE('',#420,#422,#170,.T.);
#512=EDGE_CURVE('',#420,#423,#171,.T.);
#513=EDGE_CURVE('',#424,#422,#172,.T.);
#514=EDGE_CURVE('',#423,#424,#173,.T.);
#515=EDGE_CURVE('',#423,#425,#174,.T.);
#516=EDGE_CURVE('',#426,#424,#175,.T.);
#517=EDGE_CURVE('',#425,#426,#176,.T.);
#518=EDGE_CURVE('',#425,#419,#177,.T.);
#519=EDGE_CURVE('',#421,#426,#178,.T.);
#520=EDGE_CURVE('',#427,#428,#179,.T.);
#521=EDGE_CURVE('',#429,#427,#180,.T.);
#522=EDGE_CURVE('',#430,#429,#181,.T.);
#523=EDGE_CURVE('',#431,#430,#182,.T.);
#524=EDGE_CURVE('',#432,#431,#183,.T.);
#525=EDGE_CURVE('',#433,#432,#184,.T.);
#526=EDGE_CURVE('',#434,#433,#185,.T.);
#527=EDGE_CURVE('',#428,#434,#186,.T.);
#528=EDGE_CURVE('',#430,#435,#187,.T.);
#529=EDGE_CURVE('',#435,#436,#188,.T.);
#530=EDGE_CURVE('',#431,#436,#189,.F.);
#531=EDGE_CURVE('',#429,#437,#190,.T.);
#532=EDGE_CURVE('',#437,#435,#191,.T.);
#533=EDGE_CURVE('',#427,#438,#192,.F.);
#534=EDGE_CURVE('',#438,#437,#193,.T.);
#535=EDGE_CURVE('',#436,#438,#194,.T.);
#536=EDGE_CURVE('',#439,#428,#195,.T.);
#537=EDGE_CURVE('',#440,#439,#196,.T.);
#538=EDGE_CURVE('',#432,#440,#197,.T.);
#539=EDGE_CURVE('',#441,#442,#198,.T.);
#540=EDGE_CURVE('',#443,#441,#199,.T.);
#541=EDGE_CURVE('',#443,#444,#200,.T.);
#542=EDGE_CURVE('',#444,#442,#201,.T.);
#543=EDGE_CURVE('',#445,#446,#202,.T.);
#544=EDGE_CURVE('',#447,#446,#203,.T.);
#545=EDGE_CURVE('',#448,#447,#204,.T.);
#546=EDGE_CURVE('',#448,#445,#205,.T.);
#547=EDGE_CURVE('',#449,#445,#206,.T.);
#548=EDGE_CURVE('',#450,#448,#207,.T.);
#549=EDGE_CURVE('',#450,#449,#208,.T.);
#550=EDGE_CURVE('',#451,#452,#209,.T.);
#551=EDGE_CURVE('',#451,#453,#210,.T.);
#552=EDGE_CURVE('',#453,#452,#211,.T.);
#553=EDGE_CURVE('',#454,#449,#212,.T.);
#554=EDGE_CURVE('',#455,#450,#213,.T.);
#555=EDGE_CURVE('',#455,#454,#214,.T.);
#556=EDGE_CURVE('',#446,#454,#215,.T.);
#557=EDGE_CURVE('',#447,#455,#216,.T.);
#558=EDGE_CURVE('',#456,#434,#217,.F.);
#559=EDGE_CURVE('',#439,#456,#218,.T.);
#560=EDGE_CURVE('',#457,#456,#219,.F.);
#561=EDGE_CURVE('',#440,#457,#220,.T.);
#562=EDGE_CURVE('',#433,#457,#221,.F.);
#563=EDGE_CURVE('',#458,#443,#222,.T.);
#564=EDGE_CURVE('',#459,#458,#223,.T.);
#565=EDGE_CURVE('',#444,#459,#224,.T.);
#566=EDGE_CURVE('',#442,#460,#225,.T.);
#567=EDGE_CURVE('',#459,#460,#226,.T.);
#568=EDGE_CURVE('',#460,#461,#227,.T.);
#569=EDGE_CURVE('',#458,#452,#228,.T.);
#570=EDGE_CURVE('',#452,#461,#229,.T.);
#571=EDGE_CURVE('',#461,#462,#230,.T.);
#572=EDGE_CURVE('',#453,#462,#231,.T.);
#573=EDGE_CURVE('',#462,#463,#232,.T.);
#574=EDGE_CURVE('',#463,#451,#233,.T.);
#575=EDGE_CURVE('',#463,#441,#234,.T.);
#576=EDGE_CURVE('',#464,#465,#235,.T.);
#577=EDGE_CURVE('',#465,#466,#236,.T.);
#578=EDGE_CURVE('',#466,#467,#237,.T.);
#579=EDGE_CURVE('',#464,#467,#238,.T.);
#580=EDGE_CURVE('',#465,#468,#239,.T.);
#581=EDGE_CURVE('',#468,#469,#240,.T.);
#582=EDGE_CURVE('',#469,#466,#241,.T.);
#583=EDGE_CURVE('',#468,#470,#242,.T.);
#584=EDGE_CURVE('',#470,#471,#243,.T.);
#585=EDGE_CURVE('',#471,#469,#244,.T.);
#586=EDGE_CURVE('',#467,#472,#245,.T.);
#587=EDGE_CURVE('',#473,#471,#246,.T.);
#588=EDGE_CURVE('',#472,#473,#247,.T.);
#589=EDGE_CURVE('',#474,#474,#17,.T.);
#590=EDGE_CURVE('',#475,#475,#18,.T.);
#591=EDGE_CURVE('',#476,#476,#19,.T.);
#592=EDGE_CURVE('',#477,#477,#20,.T.);
#593=EDGE_CURVE('',#478,#479,#248,.T.);
#594=EDGE_CURVE('',#480,#478,#249,.T.);
#595=EDGE_CURVE('',#481,#480,#250,.T.);
#596=EDGE_CURVE('',#479,#481,#251,.T.);
#597=EDGE_CURVE('',#482,#483,#252,.T.);
#598=EDGE_CURVE('',#484,#482,#253,.T.);
#599=EDGE_CURVE('',#485,#484,#254,.T.);
#600=EDGE_CURVE('',#483,#485,#255,.T.);
#601=EDGE_CURVE('',#486,#487,#256,.T.);
#602=EDGE_CURVE('',#488,#486,#257,.T.);
#603=EDGE_CURVE('',#489,#488,#258,.T.);
#604=EDGE_CURVE('',#487,#489,#259,.T.);
#605=EDGE_CURVE('',#489,#490,#260,.T.);
#606=EDGE_CURVE('',#491,#490,#261,.T.);
#607=EDGE_CURVE('',#487,#491,#262,.T.);
#608=EDGE_CURVE('',#488,#492,#263,.T.);
#609=EDGE_CURVE('',#490,#492,#264,.T.);
#610=EDGE_CURVE('',#485,#493,#265,.T.);
#611=EDGE_CURVE('',#494,#493,#266,.T.);
#612=EDGE_CURVE('',#483,#494,#267,.T.);
#613=EDGE_CURVE('',#484,#495,#268,.T.);
#614=EDGE_CURVE('',#493,#495,#269,.T.);
#615=EDGE_CURVE('',#481,#496,#270,.T.);
#616=EDGE_CURVE('',#497,#496,#271,.T.);
#617=EDGE_CURVE('',#479,#497,#272,.T.);
#618=EDGE_CURVE('',#480,#498,#273,.T.);
#619=EDGE_CURVE('',#496,#498,#274,.T.);
#620=EDGE_CURVE('',#470,#499,#275,.T.);
#621=EDGE_CURVE('',#499,#473,#276,.T.);
#622=EDGE_CURVE('',#500,#500,#21,.T.);
#623=EDGE_CURVE('',#500,#477,#277,.T.);
#624=EDGE_CURVE('',#501,#501,#22,.T.);
#625=EDGE_CURVE('',#501,#476,#278,.T.);
#626=EDGE_CURVE('',#502,#502,#23,.T.);
#627=EDGE_CURVE('',#502,#474,#279,.T.);
#628=EDGE_CURVE('',#503,#503,#24,.T.);
#629=EDGE_CURVE('',#503,#475,#280,.T.);
#630=EDGE_CURVE('',#504,#486,#281,.T.);
#631=EDGE_CURVE('',#492,#504,#282,.T.);
#632=EDGE_CURVE('',#504,#491,#283,.T.);
#633=EDGE_CURVE('',#505,#482,#284,.T.);
#634=EDGE_CURVE('',#495,#505,#285,.T.);
#635=EDGE_CURVE('',#505,#494,#286,.T.);
#636=EDGE_CURVE('',#506,#478,#287,.T.);
#637=EDGE_CURVE('',#498,#506,#288,.T.);
#638=EDGE_CURVE('',#506,#497,#289,.T.);
#639=EDGE_CURVE('',#507,#464,#290,.T.);
#640=EDGE_CURVE('',#499,#507,#291,.T.);
#641=EDGE_CURVE('',#472,#507,#292,.T.);
#642=ORIENTED_EDGE('',*,*,#508,.F.);
#643=ORIENTED_EDGE('',*,*,#509,.T.);
#644=ORIENTED_EDGE('',*,*,#510,.F.);
#645=ORIENTED_EDGE('',*,*,#511,.F.);
#646=ORIENTED_EDGE('',*,*,#512,.F.);
#647=ORIENTED_EDGE('',*,*,#511,.T.);
#648=ORIENTED_EDGE('',*,*,#513,.F.);
#649=ORIENTED_EDGE('',*,*,#514,.F.);
#650=ORIENTED_EDGE('',*,*,#515,.F.);
#651=ORIENTED_EDGE('',*,*,#514,.T.);
#652=ORIENTED_EDGE('',*,*,#516,.F.);
#653=ORIENTED_EDGE('',*,*,#517,.F.);
#654=ORIENTED_EDGE('',*,*,#518,.F.);
#655=ORIENTED_EDGE('',*,*,#517,.T.);
#656=ORIENTED_EDGE('',*,*,#519,.F.);
#657=ORIENTED_EDGE('',*,*,#509,.F.);
#658=ORIENTED_EDGE('',*,*,#519,.T.);
#659=ORIENTED_EDGE('',*,*,#516,.T.);
#660=ORIENTED_EDGE('',*,*,#513,.T.);
#661=ORIENTED_EDGE('',*,*,#510,.T.);
#662=ORIENTED_EDGE('',*,*,#520,.F.);
#663=ORIENTED_EDGE('',*,*,#521,.F.);
#664=ORIENTED_EDGE('',*,*,#522,.F.);
#665=ORIENTED_EDGE('',*,*,#523,.F.);
#666=ORIENTED_EDGE('',*,*,#524,.F.);
#667=ORIENTED_EDGE('',*,*,#525,.F.);
#668=ORIENTED_EDGE('',*,*,#526,.F.);
#669=ORIENTED_EDGE('',*,*,#527,.F.);
#670=ORIENTED_EDGE('',*,*,#523,.T.);
#671=ORIENTED_EDGE('',*,*,#528,.T.);
#672=ORIENTED_EDGE('',*,*,#529,.T.);
#673=ORIENTED_EDGE('',*,*,#530,.F.);
#674=ORIENTED_EDGE('',*,*,#522,.T.);
#675=ORIENTED_EDGE('',*,*,#531,.T.);
#676=ORIENTED_EDGE('',*,*,#532,.T.);
#677=ORIENTED_EDGE('',*,*,#528,.F.);
#678=ORIENTED_EDGE('',*,*,#521,.T.);
#679=ORIENTED_EDGE('',*,*,#533,.T.);
#680=ORIENTED_EDGE('',*,*,#534,.T.);
#681=ORIENTED_EDGE('',*,*,#531,.F.);
#682=ORIENTED_EDGE('',*,*,#524,.T.);
#683=ORIENTED_EDGE('',*,*,#530,.T.);
#684=ORIENTED_EDGE('',*,*,#535,.T.);
#685=ORIENTED_EDGE('',*,*,#533,.F.);
#686=ORIENTED_EDGE('',*,*,#520,.T.);
#687=ORIENTED_EDGE('',*,*,#536,.F.);
#688=ORIENTED_EDGE('',*,*,#537,.F.);
#689=ORIENTED_EDGE('',*,*,#538,.F.);
#690=ORIENTED_EDGE('',*,*,#539,.F.);
#691=ORIENTED_EDGE('',*,*,#540,.F.);
#692=ORIENTED_EDGE('',*,*,#541,.T.);
#693=ORIENTED_EDGE('',*,*,#542,.T.);
#694=ORIENTED_EDGE('',*,*,#543,.T.);
#695=ORIENTED_EDGE('',*,*,#544,.F.);
#696=ORIENTED_EDGE('',*,*,#545,.F.);
#697=ORIENTED_EDGE('',*,*,#546,.T.);
#698=ORIENTED_EDGE('',*,*,#547,.T.);
#699=ORIENTED_EDGE('',*,*,#546,.F.);
#700=ORIENTED_EDGE('',*,*,#548,.F.);
#701=ORIENTED_EDGE('',*,*,#549,.T.);
#702=ORIENTED_EDGE('',*,*,#550,.F.);
#703=ORIENTED_EDGE('',*,*,#551,.T.);
#704=ORIENTED_EDGE('',*,*,#552,.T.);
#705=ORIENTED_EDGE('',*,*,#553,.T.);
#706=ORIENTED_EDGE('',*,*,#549,.F.);
#707=ORIENTED_EDGE('',*,*,#554,.F.);
#708=ORIENTED_EDGE('',*,*,#555,.T.);
#709=ORIENTED_EDGE('',*,*,#556,.T.);
#710=ORIENTED_EDGE('',*,*,#555,.F.);
#711=ORIENTED_EDGE('',*,*,#557,.F.);
#712=ORIENTED_EDGE('',*,*,#544,.T.);
#713=ORIENTED_EDGE('',*,*,#547,.F.);
#714=ORIENTED_EDGE('',*,*,#553,.F.);
#715=ORIENTED_EDGE('',*,*,#556,.F.);
#716=ORIENTED_EDGE('',*,*,#543,.F.);
#717=ORIENTED_EDGE('',*,*,#527,.T.);
#718=ORIENTED_EDGE('',*,*,#558,.F.);
#719=ORIENTED_EDGE('',*,*,#559,.F.);
#720=ORIENTED_EDGE('',*,*,#536,.T.);
#721=ORIENTED_EDGE('',*,*,#560,.F.);
#722=ORIENTED_EDGE('',*,*,#561,.F.);
#723=ORIENTED_EDGE('',*,*,#537,.T.);
#724=ORIENTED_EDGE('',*,*,#559,.T.);
#725=ORIENTED_EDGE('',*,*,#525,.T.);
#726=ORIENTED_EDGE('',*,*,#538,.T.);
#727=ORIENTED_EDGE('',*,*,#561,.T.);
#728=ORIENTED_EDGE('',*,*,#562,.F.);
#729=ORIENTED_EDGE('',*,*,#526,.T.);
#730=ORIENTED_EDGE('',*,*,#562,.T.);
#731=ORIENTED_EDGE('',*,*,#560,.T.);
#732=ORIENTED_EDGE('',*,*,#558,.T.);
#733=ORIENTED_EDGE('',*,*,#541,.F.);
#734=ORIENTED_EDGE('',*,*,#563,.F.);
#735=ORIENTED_EDGE('',*,*,#564,.F.);
#736=ORIENTED_EDGE('',*,*,#565,.F.);
#737=ORIENTED_EDGE('',*,*,#508,.T.);
#738=ORIENTED_EDGE('',*,*,#512,.T.);
#739=ORIENTED_EDGE('',*,*,#515,.T.);
#740=ORIENTED_EDGE('',*,*,#518,.T.);
#741=ORIENTED_EDGE('',*,*,#566,.F.);
#742=ORIENTED_EDGE('',*,*,#542,.F.);
#743=ORIENTED_EDGE('',*,*,#565,.T.);
#744=ORIENTED_EDGE('',*,*,#567,.T.);
#745=ORIENTED_EDGE('',*,*,#548,.T.);
#746=ORIENTED_EDGE('',*,*,#545,.T.);
#747=ORIENTED_EDGE('',*,*,#557,.T.);
#748=ORIENTED_EDGE('',*,*,#554,.T.);
#749=ORIENTED_EDGE('',*,*,#568,.F.);
#750=ORIENTED_EDGE('',*,*,#567,.F.);
#751=ORIENTED_EDGE('',*,*,#564,.T.);
#752=ORIENTED_EDGE('',*,*,#569,.T.);
#753=ORIENTED_EDGE('',*,*,#570,.T.);
#754=ORIENTED_EDGE('',*,*,#571,.F.);
#755=ORIENTED_EDGE('',*,*,#570,.F.);
#756=ORIENTED_EDGE('',*,*,#552,.F.);
#757=ORIENTED_EDGE('',*,*,#572,.T.);
#758=ORIENTED_EDGE('',*,*,#573,.F.);
#759=ORIENTED_EDGE('',*,*,#572,.F.);
#760=ORIENTED_EDGE('',*,*,#551,.F.);
#761=ORIENTED_EDGE('',*,*,#574,.F.);
#762=ORIENTED_EDGE('',*,*,#575,.F.);
#763=ORIENTED_EDGE('',*,*,#574,.T.);
#764=ORIENTED_EDGE('',*,*,#550,.T.);
#765=ORIENTED_EDGE('',*,*,#569,.F.);
#766=ORIENTED_EDGE('',*,*,#563,.T.);
#767=ORIENTED_EDGE('',*,*,#540,.T.);
#768=ORIENTED_EDGE('',*,*,#571,.T.);
#769=ORIENTED_EDGE('',*,*,#573,.T.);
#770=ORIENTED_EDGE('',*,*,#575,.T.);
#771=ORIENTED_EDGE('',*,*,#539,.T.);
#772=ORIENTED_EDGE('',*,*,#566,.T.);
#773=ORIENTED_EDGE('',*,*,#568,.T.);
#774=ORIENTED_EDGE('',*,*,#534,.F.);
#775=ORIENTED_EDGE('',*,*,#535,.F.);
#776=ORIENTED_EDGE('',*,*,#529,.F.);
#777=ORIENTED_EDGE('',*,*,#532,.F.);
#778=ORIENTED_EDGE('',*,*,#576,.T.);
#779=ORIENTED_EDGE('',*,*,#577,.T.);
#780=ORIENTED_EDGE('',*,*,#578,.T.);
#781=ORIENTED_EDGE('',*,*,#579,.F.);
#782=ORIENTED_EDGE('',*,*,#580,.T.);
#783=ORIENTED_EDGE('',*,*,#581,.T.);
#784=ORIENTED_EDGE('',*,*,#582,.T.);
#785=ORIENTED_EDGE('',*,*,#577,.F.);
#786=ORIENTED_EDGE('',*,*,#583,.T.);
#787=ORIENTED_EDGE('',*,*,#584,.T.);
#788=ORIENTED_EDGE('',*,*,#585,.T.);
#789=ORIENTED_EDGE('',*,*,#581,.F.);
#790=ORIENTED_EDGE('',*,*,#586,.F.);
#791=ORIENTED_EDGE('',*,*,#578,.F.);
#792=ORIENTED_EDGE('',*,*,#582,.F.);
#793=ORIENTED_EDGE('',*,*,#585,.F.);
#794=ORIENTED_EDGE('',*,*,#587,.F.);
#795=ORIENTED_EDGE('',*,*,#588,.F.);
#796=ORIENTED_EDGE('',*,*,#589,.F.);
#797=ORIENTED_EDGE('',*,*,#590,.F.);
#798=ORIENTED_EDGE('',*,*,#591,.F.);
#799=ORIENTED_EDGE('',*,*,#592,.F.);
#800=ORIENTED_EDGE('',*,*,#593,.F.);
#801=ORIENTED_EDGE('',*,*,#594,.F.);
#802=ORIENTED_EDGE('',*,*,#595,.F.);
#803=ORIENTED_EDGE('',*,*,#596,.F.);
#804=ORIENTED_EDGE('',*,*,#597,.F.);
#805=ORIENTED_EDGE('',*,*,#598,.F.);
#806=ORIENTED_EDGE('',*,*,#599,.F.);
#807=ORIENTED_EDGE('',*,*,#600,.F.);
#808=ORIENTED_EDGE('',*,*,#601,.F.);
#809=ORIENTED_EDGE('',*,*,#602,.F.);
#810=ORIENTED_EDGE('',*,*,#603,.F.);
#811=ORIENTED_EDGE('',*,*,#604,.F.);
#812=ORIENTED_EDGE('',*,*,#604,.T.);
#813=ORIENTED_EDGE('',*,*,#605,.T.);
#814=ORIENTED_EDGE('',*,*,#606,.F.);
#815=ORIENTED_EDGE('',*,*,#607,.F.);
#816=ORIENTED_EDGE('',*,*,#603,.T.);
#817=ORIENTED_EDGE('',*,*,#608,.T.);
#818=ORIENTED_EDGE('',*,*,#609,.F.);
#819=ORIENTED_EDGE('',*,*,#605,.F.);
#820=ORIENTED_EDGE('',*,*,#600,.T.);
#821=ORIENTED_EDGE('',*,*,#610,.T.);
#822=ORIENTED_EDGE('',*,*,#611,.F.);
#823=ORIENTED_EDGE('',*,*,#612,.F.);
#824=ORIENTED_EDGE('',*,*,#599,.T.);
#825=ORIENTED_EDGE('',*,*,#613,.T.);
#826=ORIENTED_EDGE('',*,*,#614,.F.);
#827=ORIENTED_EDGE('',*,*,#610,.F.);
#828=ORIENTED_EDGE('',*,*,#596,.T.);
#829=ORIENTED_EDGE('',*,*,#615,.T.);
#830=ORIENTED_EDGE('',*,*,#616,.F.);
#831=ORIENTED_EDGE('',*,*,#617,.F.);
#832=ORIENTED_EDGE('',*,*,#595,.T.);
#833=ORIENTED_EDGE('',*,*,#618,.T.);
#834=ORIENTED_EDGE('',*,*,#619,.F.);
#835=ORIENTED_EDGE('',*,*,#615,.F.);
#836=ORIENTED_EDGE('',*,*,#620,.T.);
#837=ORIENTED_EDGE('',*,*,#621,.T.);
#838=ORIENTED_EDGE('',*,*,#587,.T.);
#839=ORIENTED_EDGE('',*,*,#584,.F.);
#840=ORIENTED_EDGE('',*,*,#622,.F.);
#841=ORIENTED_EDGE('',*,*,#623,.T.);
#842=ORIENTED_EDGE('',*,*,#592,.T.);
#843=ORIENTED_EDGE('',*,*,#623,.F.);
#844=ORIENTED_EDGE('',*,*,#624,.F.);
#845=ORIENTED_EDGE('',*,*,#625,.T.);
#846=ORIENTED_EDGE('',*,*,#591,.T.);
#847=ORIENTED_EDGE('',*,*,#625,.F.);
#848=ORIENTED_EDGE('',*,*,#626,.F.);
#849=ORIENTED_EDGE('',*,*,#627,.T.);
#850=ORIENTED_EDGE('',*,*,#589,.T.);
#851=ORIENTED_EDGE('',*,*,#627,.F.);
#852=ORIENTED_EDGE('',*,*,#628,.F.);
#853=ORIENTED_EDGE('',*,*,#629,.T.);
#854=ORIENTED_EDGE('',*,*,#590,.T.);
#855=ORIENTED_EDGE('',*,*,#629,.F.);
#856=ORIENTED_EDGE('',*,*,#602,.T.);
#857=ORIENTED_EDGE('',*,*,#630,.F.);
#858=ORIENTED_EDGE('',*,*,#631,.F.);
#859=ORIENTED_EDGE('',*,*,#608,.F.);
#860=ORIENTED_EDGE('',*,*,#601,.T.);
#861=ORIENTED_EDGE('',*,*,#607,.T.);
#862=ORIENTED_EDGE('',*,*,#632,.F.);
#863=ORIENTED_EDGE('',*,*,#630,.T.);
#864=ORIENTED_EDGE('',*,*,#598,.T.);
#865=ORIENTED_EDGE('',*,*,#633,.F.);
#866=ORIENTED_EDGE('',*,*,#634,.F.);
#867=ORIENTED_EDGE('',*,*,#613,.F.);
#868=ORIENTED_EDGE('',*,*,#597,.T.);
#869=ORIENTED_EDGE('',*,*,#612,.T.);
#870=ORIENTED_EDGE('',*,*,#635,.F.);
#871=ORIENTED_EDGE('',*,*,#633,.T.);
#872=ORIENTED_EDGE('',*,*,#594,.T.);
#873=ORIENTED_EDGE('',*,*,#636,.F.);
#874=ORIENTED_EDGE('',*,*,#637,.F.);
#875=ORIENTED_EDGE('',*,*,#618,.F.);
#876=ORIENTED_EDGE('',*,*,#593,.T.);
#877=ORIENTED_EDGE('',*,*,#617,.T.);
#878=ORIENTED_EDGE('',*,*,#638,.F.);
#879=ORIENTED_EDGE('',*,*,#636,.T.);
#880=ORIENTED_EDGE('',*,*,#620,.F.);
#881=ORIENTED_EDGE('',*,*,#583,.F.);
#882=ORIENTED_EDGE('',*,*,#580,.F.);
#883=ORIENTED_EDGE('',*,*,#576,.F.);
#884=ORIENTED_EDGE('',*,*,#639,.F.);
#885=ORIENTED_EDGE('',*,*,#640,.F.);
#886=ORIENTED_EDGE('',*,*,#622,.T.);
#887=ORIENTED_EDGE('',*,*,#624,.T.);
#888=ORIENTED_EDGE('',*,*,#626,.T.);
#889=ORIENTED_EDGE('',*,*,#628,.T.);
#890=ORIENTED_EDGE('',*,*,#632,.T.);
#891=ORIENTED_EDGE('',*,*,#606,.T.);
#892=ORIENTED_EDGE('',*,*,#609,.T.);
#893=ORIENTED_EDGE('',*,*,#631,.T.);
#894=ORIENTED_EDGE('',*,*,#635,.T.);
#895=ORIENTED_EDGE('',*,*,#611,.T.);
#896=ORIENTED_EDGE('',*,*,#614,.T.);
#897=ORIENTED_EDGE('',*,*,#634,.T.);
#898=ORIENTED_EDGE('',*,*,#638,.T.);
#899=ORIENTED_EDGE('',*,*,#616,.T.);
#900=ORIENTED_EDGE('',*,*,#619,.T.);
#901=ORIENTED_EDGE('',*,*,#637,.T.);
#902=ORIENTED_EDGE('',*,*,#640,.T.);
#903=ORIENTED_EDGE('',*,*,#641,.F.);
#904=ORIENTED_EDGE('',*,*,#588,.T.);
#905=ORIENTED_EDGE('',*,*,#621,.F.);
#906=ORIENTED_EDGE('',*,*,#639,.T.);
#907=ORIENTED_EDGE('',*,*,#579,.T.);
#908=ORIENTED_EDGE('',*,*,#586,.T.);
#909=ORIENTED_EDGE('',*,*,#641,.T.);
#910=PLANE('',#1025);
#911=PLANE('',#1026);
#912=PLANE('',#1027);
#913=PLANE('',#1028);
#914=PLANE('',#1029);
#915=PLANE('',#1030);
#916=PLANE('',#1031);
#917=PLANE('',#1032);
#918=PLANE('',#1033);
#919=PLANE('',#1034);
#920=PLANE('',#1035);
#921=PLANE('',#1036);
#922=PLANE('',#1037);
#923=PLANE('',#1038);
#924=PLANE('',#1039);
#925=PLANE('',#1040);
#926=PLANE('',#1041);
#927=PLANE('',#1042);
#928=PLANE('',#1043);
#929=PLANE('',#1044);
#930=PLANE('',#1045);
#931=PLANE('',#1046);
#932=PLANE('',#1047);
#933=PLANE('',#1048);
#934=PLANE('',#1049);
#935=PLANE('',#1050);
#936=PLANE('',#1051);
#937=PLANE('',#1052);
#938=PLANE('',#1053);
#939=PLANE('',#1054);
#940=PLANE('',#1055);
#941=PLANE('',#1056);
#942=PLANE('',#1061);
#943=PLANE('',#1062);
#944=PLANE('',#1063);
#945=PLANE('',#1064);
#946=PLANE('',#1065);
#947=PLANE('',#1066);
#948=PLANE('',#1067);
#949=PLANE('',#1076);
#950=PLANE('',#1077);
#951=PLANE('',#1078);
#952=PLANE('',#1079);
#953=PLANE('',#1080);
#954=PLANE('',#1081);
#955=PLANE('',#1082);
#956=PLANE('',#1083);
#957=PLANE('',#1084);
#958=ADVANCED_FACE('',(#46),#910,.T.);
#959=ADVANCED_FACE('',(#47),#911,.T.);
#960=ADVANCED_FACE('',(#48),#912,.T.);
#961=ADVANCED_FACE('',(#49),#913,.T.);
#962=ADVANCED_FACE('',(#50),#914,.T.);
#963=ADVANCED_FACE('',(#51),#915,.T.);
#964=ADVANCED_FACE('',(#52),#916,.F.);
#965=ADVANCED_FACE('',(#53),#917,.F.);
#966=ADVANCED_FACE('',(#54),#918,.F.);
#967=ADVANCED_FACE('',(#55),#919,.F.);
#968=ADVANCED_FACE('',(#56),#920,.T.);
#969=ADVANCED_FACE('',(#57),#921,.F.);
#970=ADVANCED_FACE('',(#58),#922,.F.);
#971=ADVANCED_FACE('',(#59),#923,.F.);
#972=ADVANCED_FACE('',(#60),#924,.F.);
#973=ADVANCED_FACE('',(#61),#925,.F.);
#974=ADVANCED_FACE('',(#62),#926,.T.);
#975=ADVANCED_FACE('',(#63),#927,.T.);
#976=ADVANCED_FACE('',(#64),#928,.T.);
#977=ADVANCED_FACE('',(#65),#929,.T.);
#978=ADVANCED_FACE('',(#66),#930,.F.);
#979=ADVANCED_FACE('',(#67,#29),#931,.F.);
#980=ADVANCED_FACE('',(#68,#30),#932,.T.);
#981=ADVANCED_FACE('',(#69),#933,.T.);
#982=ADVANCED_FACE('',(#70),#934,.T.);
#983=ADVANCED_FACE('',(#71),#935,.T.);
#984=ADVANCED_FACE('',(#72),#936,.T.);
#985=ADVANCED_FACE('',(#73,#31),#937,.T.);
#986=ADVANCED_FACE('',(#74),#938,.T.);
#987=ADVANCED_FACE('',(#75),#939,.T.);
#988=ADVANCED_FACE('',(#76),#940,.T.);
#989=ADVANCED_FACE('',(#77,#32,#33,#34,#35,#36,#37,#38),#941,.T.);
#990=ADVANCED_FACE('',(#78),#942,.F.);
#991=ADVANCED_FACE('',(#79),#943,.F.);
#992=ADVANCED_FACE('',(#80),#944,.F.);
#993=ADVANCED_FACE('',(#81),#945,.F.);
#994=ADVANCED_FACE('',(#82),#946,.F.);
#995=ADVANCED_FACE('',(#83),#947,.F.);
#996=ADVANCED_FACE('',(#84),#948,.T.);
#997=ADVANCED_FACE('',(#85),#13,.F.);
#998=ADVANCED_FACE('',(#86),#14,.F.);
#999=ADVANCED_FACE('',(#87),#15,.F.);
#1000=ADVANCED_FACE('',(#88),#16,.F.);
#1001=ADVANCED_FACE('',(#89),#949,.F.);
#1002=ADVANCED_FACE('',(#90),#950,.F.);
#1003=ADVANCED_FACE('',(#91),#951,.F.);
#1004=ADVANCED_FACE('',(#92),#952,.F.);
#1005=ADVANCED_FACE('',(#93),#953,.F.);
#1006=ADVANCED_FACE('',(#94),#954,.F.);
#1007=ADVANCED_FACE('',(#95,#39,#40,#41,#42,#43,#44,#45),#955,.F.);
#1008=ADVANCED_FACE('',(#96),#956,.T.);
#1009=ADVANCED_FACE('',(#97),#957,.T.);
#1010=CLOSED_SHELL('',(#958,#959,#960,#961,#962,#963,#964,#965,#966,#967,
#968,#969,#970,#971,#972,#973,#974,#975,#976,#977,#978,#979,#980,#981,#982,
#983,#984,#985));
#1011=CLOSED_SHELL('',(#986,#987,#988,#989,#990,#991,#992,#993,#994,#995,
#996,#997,#998,#999,#1000,#1001,#1002,#1003,#1004,#1005,#1006,#1007,#1008,
#1009));
#1012=DERIVED_UNIT_ELEMENT(#1014,1.);
#1013=DERIVED_UNIT_ELEMENT(#1614,-3.);
#1014=(
MASS_UNIT()
NAMED_UNIT(*)
SI_UNIT(.KILO.,.GRAM.)
);
#1015=DERIVED_UNIT((#1012,#1013));
#1016=MEASURE_REPRESENTATION_ITEM('density measure',
POSITIVE_RATIO_MEASURE(7850.),#1015);
#1017=PROPERTY_DEFINITION_REPRESENTATION(#1022,#1019);
#1018=PROPERTY_DEFINITION_REPRESENTATION(#1023,#1020);
#1019=REPRESENTATION('material name',(#1021),#1611);
#1020=REPRESENTATION('density',(#1016),#1611);
#1021=DESCRIPTIVE_REPRESENTATION_ITEM('Steel','Steel');
#1022=PROPERTY_DEFINITION('material property','material name',#1621);
#1023=PROPERTY_DEFINITION('material property','density of part',#1621);
#1024=AXIS2_PLACEMENT_3D('',#1333,#1085,#1086);
#1025=AXIS2_PLACEMENT_3D('',#1334,#1087,#1088);
#1026=AXIS2_PLACEMENT_3D('',#1343,#1093,#1094);
#1027=AXIS2_PLACEMENT_3D('',#1349,#1098,#1099);
#1028=AXIS2_PLACEMENT_3D('',#1355,#1103,#1104);
#1029=AXIS2_PLACEMENT_3D('',#1358,#1107,#1108);
#1030=AXIS2_PLACEMENT_3D('',#1359,#1109,#1110);
#1031=AXIS2_PLACEMENT_3D('',#1376,#1119,#1120);
#1032=AXIS2_PLACEMENT_3D('',#1382,#1124,#1125);
#1033=AXIS2_PLACEMENT_3D('',#1386,#1128,#1129);
#1034=AXIS2_PLACEMENT_3D('',#1390,#1132,#1133);
#1035=AXIS2_PLACEMENT_3D('',#1397,#1138,#1139);
#1036=AXIS2_PLACEMENT_3D('',#1406,#1144,#1145);
#1037=AXIS2_PLACEMENT_3D('',#1415,#1150,#1151);
#1038=AXIS2_PLACEMENT_3D('',#1421,#1155,#1156);
#1039=AXIS2_PLACEMENT_3D('',#1428,#1160,#1161);
#1040=AXIS2_PLACEMENT_3D('',#1434,#1165,#1166);
#1041=AXIS2_PLACEMENT_3D('',#1437,#1169,#1170);
#1042=AXIS2_PLACEMENT_3D('',#1438,#1171,#1172);
#1043=AXIS2_PLACEMENT_3D('',#1442,#1175,#1176);
#1044=AXIS2_PLACEMENT_3D('',#1446,#1179,#1180);
#1045=AXIS2_PLACEMENT_3D('',#1448,#1182,#1183);
#1046=AXIS2_PLACEMENT_3D('',#1449,#1184,#1185);
#1047=AXIS2_PLACEMENT_3D('',#1455,#1189,#1190);
#1048=AXIS2_PLACEMENT_3D('',#1459,#1193,#1194);
#1049=AXIS2_PLACEMENT_3D('',#1464,#1198,#1199);
#1050=AXIS2_PLACEMENT_3D('',#1468,#1202,#1203);
#1051=AXIS2_PLACEMENT_3D('',#1472,#1206,#1207);
#1052=AXIS2_PLACEMENT_3D('',#1474,#1209,#1210);
#1053=AXIS2_PLACEMENT_3D('',#1475,#1211,#1212);
#1054=AXIS2_PLACEMENT_3D('',#1484,#1217,#1218);
#1055=AXIS2_PLACEMENT_3D('',#1490,#1222,#1223);
#1056=AXIS2_PLACEMENT_3D('',#1496,#1227,#1228);
#1057=AXIS2_PLACEMENT_3D('',#1503,#1232,#1233);
#1058=AXIS2_PLACEMENT_3D('',#1505,#1234,#1235);
#1059=AXIS2_PLACEMENT_3D('',#1507,#1236,#1237);
#1060=AXIS2_PLACEMENT_3D('',#1509,#1238,#1239);
#1061=AXIS2_PLACEMENT_3D('',#1534,#1252,#1253);
#1062=AXIS2_PLACEMENT_3D('',#1540,#1257,#1258);
#1063=AXIS2_PLACEMENT_3D('',#1544,#1261,#1262);
#1064=AXIS2_PLACEMENT_3D('',#1550,#1266,#1267);
#1065=AXIS2_PLACEMENT_3D('',#1554,#1270,#1271);
#1066=AXIS2_PLACEMENT_3D('',#1560,#1275,#1276);
#1067=AXIS2_PLACEMENT_3D('',#1564,#1279,#1280);
#1068=AXIS2_PLACEMENT_3D('',#1568,#1283,#1284);
#1069=AXIS2_PLACEMENT_3D('',#1570,#1285,#1286);
#1070=AXIS2_PLACEMENT_3D('',#1572,#1288,#1289);
#1071=AXIS2_PLACEMENT_3D('',#1574,#1290,#1291);
#1072=AXIS2_PLACEMENT_3D('',#1576,#1293,#1294);
#1073=AXIS2_PLACEMENT_3D('',#1578,#1295,#1296);
#1074=AXIS2_PLACEMENT_3D('',#1580,#1298,#1299);
#1075=AXIS2_PLACEMENT_3D('',#1582,#1300,#1301);
#1076=AXIS2_PLACEMENT_3D('',#1584,#1303,#1304);
#1077=AXIS2_PLACEMENT_3D('',#1588,#1307,#1308);
#1078=AXIS2_PLACEMENT_3D('',#1590,#1310,#1311);
#1079=AXIS2_PLACEMENT_3D('',#1594,#1314,#1315);
#1080=AXIS2_PLACEMENT_3D('',#1596,#1317,#1318);
#1081=AXIS2_PLACEMENT_3D('',#1600,#1321,#1322);
#1082=AXIS2_PLACEMENT_3D('',#1602,#1324,#1325);
#1083=AXIS2_PLACEMENT_3D('',#1606,#1328,#1329);
#1084=AXIS2_PLACEMENT_3D('',#1608,#1331,#1332);
#1085=DIRECTION('axis',(0.,0.,1.));
#1086=DIRECTION('refdir',(1.,0.,0.));
#1087=DIRECTION('center_axis',(0.,-1.,0.));
#1088=DIRECTION('ref_axis',(-1.,0.,0.));
#1089=DIRECTION('',(1.,0.,0.));
#1090=DIRECTION('',(0.,0.,-1.));
#1091=DIRECTION('',(-1.,0.,0.));
#1092=DIRECTION('',(0.,0.,-1.));
#1093=DIRECTION('center_axis',(1.,0.,0.));
#1094=DIRECTION('ref_axis',(0.,-1.,0.));
#1095=DIRECTION('',(0.,1.,0.));
#1096=DIRECTION('',(0.,-1.,0.));
#1097=DIRECTION('',(0.,0.,-1.));
#1098=DIRECTION('center_axis',(0.,1.,0.));
#1099=DIRECTION('ref_axis',(1.,0.,0.));
#1100=DIRECTION('',(-1.,0.,0.));
#1101=DIRECTION('',(1.,0.,0.));
#1102=DIRECTION('',(0.,0.,-1.));
#1103=DIRECTION('center_axis',(-1.,0.,0.));
#1104=DIRECTION('ref_axis',(0.,1.,0.));
#1105=DIRECTION('',(0.,-1.,0.));
#1106=DIRECTION('',(0.,1.,0.));
#1107=DIRECTION('center_axis',(0.,0.,-1.));
#1108=DIRECTION('ref_axis',(-1.,0.,0.));
#1109=DIRECTION('center_axis',(0.,0.,1.));
#1110=DIRECTION('ref_axis',(1.,0.,0.));
#1111=DIRECTION('',(0.,-1.,0.));
#1112=DIRECTION('',(1.,0.,0.));
#1113=DIRECTION('',(0.,1.,0.));
#1114=DIRECTION('',(-1.,0.,0.));
#1115=DIRECTION('',(0.,-1.,0.));
#1116=DIRECTION('',(1.,0.,0.));
#1117=DIRECTION('',(0.,-1.,0.));
#1118=DIRECTION('',(-1.,0.,0.));
#1119=DIRECTION('center_axis',(0.,-1.,0.));
#1120=DIRECTION('ref_axis',(1.,0.,0.));
#1121=DIRECTION('',(0.,0.,1.));
#1122=DIRECTION('',(1.,0.,0.));
#1123=DIRECTION('',(0.,0.,-1.));
#1124=DIRECTION('center_axis',(-1.,0.,0.));
#1125=DIRECTION('ref_axis',(0.,-1.,0.));
#1126=DIRECTION('',(0.,0.,1.));
#1127=DIRECTION('',(0.,-1.,0.));
#1128=DIRECTION('center_axis',(0.,1.,0.));
#1129=DIRECTION('ref_axis',(-1.,0.,0.));
#1130=DIRECTION('',(0.,0.,-1.));
#1131=DIRECTION('',(-1.,0.,0.));
#1132=DIRECTION('center_axis',(1.,0.,0.));
#1133=DIRECTION('ref_axis',(0.,1.,0.));
#1134=DIRECTION('',(0.,1.,0.));
#1135=DIRECTION('',(0.,0.,-1.));
#1136=DIRECTION('',(0.,1.,0.));
#1137=DIRECTION('',(0.,0.,1.));
#1138=DIRECTION('center_axis',(0.,-1.,0.));
#1139=DIRECTION('ref_axis',(1.,0.,0.));
#1140=DIRECTION('',(1.,0.,0.));
#1141=DIRECTION('',(0.,0.,1.));
#1142=DIRECTION('',(1.,0.,0.));
#1143=DIRECTION('',(0.,0.,1.));
#1144=DIRECTION('center_axis',(0.,0.,-1.));
#1145=DIRECTION('ref_axis',(0.,-1.,0.));
#1146=DIRECTION('',(0.,-1.,0.));
#1147=DIRECTION('',(-1.,0.,0.));
#1148=DIRECTION('',(0.,-1.,0.));
#1149=DIRECTION('',(-1.,0.,0.));
#1150=DIRECTION('center_axis',(0.,1.,0.));
#1151=DIRECTION('ref_axis',(0.,0.,-1.));
#1152=DIRECTION('',(0.,0.,-1.));
#1153=DIRECTION('',(0.,0.,-1.));
#1154=DIRECTION('',(-1.,0.,0.));
#1155=DIRECTION('center_axis',(0.,0.,1.));
#1156=DIRECTION('ref_axis',(1.,0.,0.));
#1157=DIRECTION('',(0.,1.,0.));
#1158=DIRECTION('',(-0.999997709312639,0.00214041338866667,0.));
#1159=DIRECTION('',(0.00445599876353264,0.999990071988227,0.));
#1160=DIRECTION('center_axis',(0.,0.,1.));
#1161=DIRECTION('ref_axis',(0.,1.,0.));
#1162=DIRECTION('',(0.,1.,0.));
#1163=DIRECTION('',(0.,1.,0.));
#1164=DIRECTION('',(-1.,0.,0.));
#1165=DIRECTION('center_axis',(0.,-1.,0.));
#1166=DIRECTION('ref_axis',(0.,0.,1.));
#1167=DIRECTION('',(0.,0.,1.));
#1168=DIRECTION('',(0.,0.,1.));
#1169=DIRECTION('center_axis',(1.,0.,0.));
#1170=DIRECTION('ref_axis',(0.,-1.,0.));
#1171=DIRECTION('center_axis',(0.,1.,0.));
#1172=DIRECTION('ref_axis',(0.,0.,-1.));
#1173=DIRECTION('',(0.,0.,1.));
#1174=DIRECTION('',(-1.,0.,0.));
#1175=DIRECTION('center_axis',(0.,0.,1.));
#1176=DIRECTION('ref_axis',(0.,1.,0.));
#1177=DIRECTION('',(0.,-1.,0.));
#1178=DIRECTION('',(-1.,0.,0.));
#1179=DIRECTION('center_axis',(0.,-1.,0.));
#1180=DIRECTION('ref_axis',(0.,0.,1.));
#1181=DIRECTION('',(0.,0.,-1.));
#1182=DIRECTION('center_axis',(1.,0.,0.));
#1183=DIRECTION('ref_axis',(0.,-1.,0.));
#1184=DIRECTION('center_axis',(0.,0.,1.));
#1185=DIRECTION('ref_axis',(1.,0.,0.));
#1186=DIRECTION('',(0.,-1.,0.));
#1187=DIRECTION('',(-1.,0.,0.));
#1188=DIRECTION('',(0.,1.,0.));
#1189=DIRECTION('center_axis',(1.,0.,0.));
#1190=DIRECTION('ref_axis',(0.,1.,0.));
#1191=DIRECTION('',(0.,1.,0.));
#1192=DIRECTION('',(0.,0.,1.));
#1193=DIRECTION('center_axis',(0.,1.,0.));
#1194=DIRECTION('ref_axis',(-1.,0.,0.));
#1195=DIRECTION('',(-1.,0.,0.));
#1196=DIRECTION('',(0.,0.,1.));
#1197=DIRECTION('',(0.,0.,1.));
#1198=DIRECTION('center_axis',(-0.999990071988227,0.00445599876353264,0.));
#1199=DIRECTION('ref_axis',(0.00445599876353264,0.999990071988227,0.));
#1200=DIRECTION('',(-0.00445599876353264,-0.999990071988227,0.));
#1201=DIRECTION('',(0.,0.,1.));
#1202=DIRECTION('center_axis',(-0.00214041338866667,-0.999997709312639,
0.));
#1203=DIRECTION('ref_axis',(-0.999997709312639,0.00214041338866667,0.));
#1204=DIRECTION('',(0.999997709312639,-0.00214041338866667,0.));
#1205=DIRECTION('',(0.,0.,-1.));
#1206=DIRECTION('center_axis',(-1.,0.,0.));
#1207=DIRECTION('ref_axis',(0.,-1.,0.));
#1208=DIRECTION('',(0.,-1.,0.));
#1209=DIRECTION('center_axis',(0.,0.,1.));
#1210=DIRECTION('ref_axis',(1.,0.,0.));
#1211=DIRECTION('center_axis',(0.,-1.,0.));
#1212=DIRECTION('ref_axis',(1.,0.,0.));
#1213=DIRECTION('',(1.,0.,0.));
#1214=DIRECTION('',(0.,0.,1.));
#1215=DIRECTION('',(-1.,0.,0.));
#1216=DIRECTION('',(0.,0.,1.));
#1217=DIRECTION('center_axis',(1.,0.,0.));
#1218=DIRECTION('ref_axis',(0.,1.,0.));
#1219=DIRECTION('',(0.,1.,0.));
#1220=DIRECTION('',(0.,0.,1.));
#1221=DIRECTION('',(0.,-1.,0.));
#1222=DIRECTION('center_axis',(0.,1.,0.));
#1223=DIRECTION('ref_axis',(-1.,0.,0.));
#1224=DIRECTION('',(-1.,0.,0.));
#1225=DIRECTION('',(0.,0.,1.));
#1226=DIRECTION('',(1.,0.,0.));
#1227=DIRECTION('center_axis',(0.,0.,1.));
#1228=DIRECTION('ref_axis',(1.,0.,0.));
#1229=DIRECTION('',(0.,1.,0.));
#1230=DIRECTION('',(0.00445599876353264,0.999990071988227,0.));
#1231=DIRECTION('',(-0.999997709312639,0.00214041338866667,0.));
#1232=DIRECTION('center_axis',(0.,0.,1.));
#1233=DIRECTION('ref_axis',(-1.,0.,0.));
#1234=DIRECTION('center_axis',(0.,0.,1.));
#1235=DIRECTION('ref_axis',(-1.,0.,0.));
#1236=DIRECTION('center_axis',(0.,0.,1.));
#1237=DIRECTION('ref_axis',(-1.,0.,0.));
#1238=DIRECTION('center_axis',(0.,0.,1.));
#1239=DIRECTION('ref_axis',(-1.,0.,0.));
#1240=DIRECTION('',(-1.,0.,0.));
#1241=DIRECTION('',(0.,1.,0.));
#1242=DIRECTION('',(1.,0.,0.));
#1243=DIRECTION('',(0.,-1.,0.));
#1244=DIRECTION('',(0.,1.,0.));
#1245=DIRECTION('',(1.,0.,0.));
#1246=DIRECTION('',(0.,-1.,0.));
#1247=DIRECTION('',(-1.,0.,0.));
#1248=DIRECTION('',(0.,1.,0.));
#1249=DIRECTION('',(1.,0.,0.));
#1250=DIRECTION('',(0.,-1.,0.));
#1251=DIRECTION('',(-1.,0.,0.));
#1252=DIRECTION('center_axis',(0.,1.,0.));
#1253=DIRECTION('ref_axis',(1.,0.,0.));
#1254=DIRECTION('',(0.,0.,-1.));
#1255=DIRECTION('',(-1.,0.,0.));
#1256=DIRECTION('',(0.,0.,-1.));
#1257=DIRECTION('center_axis',(-1.,0.,0.));
#1258=DIRECTION('ref_axis',(0.,1.,0.));
#1259=DIRECTION('',(0.,0.,-1.));
#1260=DIRECTION('',(0.,-1.,0.));
#1261=DIRECTION('center_axis',(0.,1.,0.));
#1262=DIRECTION('ref_axis',(1.,0.,0.));
#1263=DIRECTION('',(0.,0.,-1.));
#1264=DIRECTION('',(-1.,0.,0.));
#1265=DIRECTION('',(0.,0.,-1.));
#1266=DIRECTION('center_axis',(-1.,0.,0.));
#1267=DIRECTION('ref_axis',(0.,1.,0.));
#1268=DIRECTION('',(0.,0.,-1.));
#1269=DIRECTION('',(0.,-1.,0.));
#1270=DIRECTION('center_axis',(-1.,0.,0.));
#1271=DIRECTION('ref_axis',(0.,1.,0.));
#1272=DIRECTION('',(0.,0.,-1.));
#1273=DIRECTION('',(0.,-1.,0.));
#1274=DIRECTION('',(0.,0.,-1.));
#1275=DIRECTION('center_axis',(0.,-1.,0.));
#1276=DIRECTION('ref_axis',(-1.,0.,0.));
#1277=DIRECTION('',(0.,0.,-1.));
#1278=DIRECTION('',(1.,0.,0.));
#1279=DIRECTION('center_axis',(-0.999990071988227,0.00445599876353264,0.));
#1280=DIRECTION('ref_axis',(0.00445599876353264,0.999990071988227,0.));
#1281=DIRECTION('',(-0.00445599876353264,-0.999990071988227,0.));
#1282=DIRECTION('',(0.,0.,1.));
#1283=DIRECTION('center_axis',(0.,0.,1.));
#1284=DIRECTION('ref_axis',(-1.,0.,0.));
#1285=DIRECTION('center_axis',(0.,0.,1.));
#1286=DIRECTION('ref_axis',(-1.,0.,0.));
#1287=DIRECTION('',(0.,0.,1.));
#1288=DIRECTION('center_axis',(0.,0.,1.));
#1289=DIRECTION('ref_axis',(-1.,0.,0.));
#1290=DIRECTION('center_axis',(0.,0.,1.));
#1291=DIRECTION('ref_axis',(-1.,0.,0.));
#1292=DIRECTION('',(0.,0.,1.));
#1293=DIRECTION('center_axis',(0.,0.,1.));
#1294=DIRECTION('ref_axis',(-1.,0.,0.));
#1295=DIRECTION('center_axis',(0.,0.,1.));
#1296=DIRECTION('ref_axis',(-1.,0.,0.));
#1297=DIRECTION('',(0.,0.,1.));
#1298=DIRECTION('center_axis',(0.,0.,1.));
#1299=DIRECTION('ref_axis',(-1.,0.,0.));
#1300=DIRECTION('center_axis',(0.,0.,1.));
#1301=DIRECTION('ref_axis',(-1.,0.,0.));
#1302=DIRECTION('',(0.,0.,1.));
#1303=DIRECTION('center_axis',(0.,-1.,0.));
#1304=DIRECTION('ref_axis',(-1.,0.,0.));
#1305=DIRECTION('',(0.,0.,1.));
#1306=DIRECTION('',(1.,0.,0.));
#1307=DIRECTION('center_axis',(1.,0.,0.));
#1308=DIRECTION('ref_axis',(0.,-1.,0.));
#1309=DIRECTION('',(0.,1.,0.));
#1310=DIRECTION('center_axis',(0.,-1.,0.));
#1311=DIRECTION('ref_axis',(-1.,0.,0.));
#1312=DIRECTION('',(0.,0.,1.));
#1313=DIRECTION('',(1.,0.,0.));
#1314=DIRECTION('center_axis',(1.,0.,0.));
#1315=DIRECTION('ref_axis',(0.,-1.,0.));
#1316=DIRECTION('',(0.,1.,0.));
#1317=DIRECTION('center_axis',(1.,0.,0.));
#1318=DIRECTION('ref_axis',(0.,-1.,0.));
#1319=DIRECTION('',(0.,0.,1.));
#1320=DIRECTION('',(0.,1.,0.));
#1321=DIRECTION('center_axis',(0.,1.,0.));
#1322=DIRECTION('ref_axis',(1.,0.,0.));
#1323=DIRECTION('',(-1.,0.,0.));
#1324=DIRECTION('center_axis',(0.,0.,1.));
#1325=DIRECTION('ref_axis',(1.,0.,0.));
#1326=DIRECTION('',(0.,-1.,0.));
#1327=DIRECTION('',(0.999997709312639,-0.00214041338866667,0.));
#1328=DIRECTION('center_axis',(-0.00214041338866667,-0.999997709312639,
0.));
#1329=DIRECTION('ref_axis',(-0.999997709312639,0.00214041338866667,0.));
#1330=DIRECTION('',(0.,0.,-1.));
#1331=DIRECTION('center_axis',(-1.,0.,0.));
#1332=DIRECTION('ref_axis',(0.,-1.,0.));
#1333=CARTESIAN_POINT('',(0.,0.,0.));
#1334=CARTESIAN_POINT('Origin',(-11.3694093827419,-10.0000001490116,3.));
#1335=CARTESIAN_POINT('',(-80.5000011995435,-10.0000001490116,3.));
#1336=CARTESIAN_POINT('',(-11.3694093827419,-10.0000001490116,3.));
#1337=CARTESIAN_POINT('',(-28.6775871556543,-10.0000001490116,3.));
#1338=CARTESIAN_POINT('',(-80.5000011995435,-10.0000001490116,1.));
#1339=CARTESIAN_POINT('',(-80.5000011995435,-10.0000001490116,3.));
#1340=CARTESIAN_POINT('',(-11.3694093827419,-10.0000001490116,1.));
#1341=CARTESIAN_POINT('',(-80.5000011995435,-10.0000001490116,1.));
#1342=CARTESIAN_POINT('',(-11.3694093827419,-10.0000001490116,3.));
#1343=CARTESIAN_POINT('Origin',(-11.3694093827419,29.20382298699,3.));
#1344=CARTESIAN_POINT('',(-11.3694093827419,29.20382298699,3.));
#1345=CARTESIAN_POINT('',(-11.3694093827419,19.371768902873,3.));
#1346=CARTESIAN_POINT('',(-11.3694093827419,29.20382298699,1.));
#1347=CARTESIAN_POINT('',(-11.3694093827419,-10.0000001490116,1.));
#1348=CARTESIAN_POINT('',(-11.3694093827419,29.20382298699,3.));
#1349=CARTESIAN_POINT('Origin',(-80.5000011995435,29.20382298699,3.));
#1350=CARTESIAN_POINT('',(-80.5000011995435,29.20382298699,3.));
#1351=CARTESIAN_POINT('',(-63.2428830640551,29.20382298699,3.));
#1352=CARTESIAN_POINT('',(-80.5000011995435,29.20382298699,1.));
#1353=CARTESIAN_POINT('',(-11.3694093827419,29.20382298699,1.));
#1354=CARTESIAN_POINT('',(-80.5000011995435,29.20382298699,3.));
#1355=CARTESIAN_POINT('Origin',(-80.5000011995435,-10.0000001490116,3.));
#1356=CARTESIAN_POINT('',(-80.5000011995435,-0.230142665127765,3.));
#1357=CARTESIAN_POINT('',(-80.5000011995435,29.20382298699,1.));
#1358=CARTESIAN_POINT('Origin',(-45.9347052911427,9.6019114189892,1.));
#1359=CARTESIAN_POINT('Origin',(-45.9347052911427,9.6019114189892,3.1));
#1360=CARTESIAN_POINT('',(-12.7857649285668,27.7397148187561,3.1));
#1361=CARTESIAN_POINT('',(-12.7857649285668,19.339715086977,3.1));
#1362=CARTESIAN_POINT('',(-12.7857649285668,-0.27918688112736,3.1));
#1363=CARTESIAN_POINT('',(-79.1857649285668,27.7397148187561,3.1));
#1364=CARTESIAN_POINT('',(-28.6102351098547,27.7397148187561,3.1));
#1365=CARTESIAN_POINT('',(-79.1857649285668,-8.66028518124392,3.1));
#1366=CARTESIAN_POINT('',(-79.1857649285668,19.4208131188726,3.1));
#1367=CARTESIAN_POINT('',(-12.7857649285668,-8.66028518124392,3.1));
#1368=CARTESIAN_POINT('',(-63.3102351098547,-8.66028518124392,3.1));
#1369=CARTESIAN_POINT('',(-12.7857649285668,-0.660285166342756,3.1));
#1370=CARTESIAN_POINT('',(-12.7857649285668,-0.27918688112736,3.1));
#1371=CARTESIAN_POINT('',(-16.9788127410095,-0.660285166342758,3.1));
#1372=CARTESIAN_POINT('',(-28.6102351098547,-0.660285166342756,3.1));
#1373=CARTESIAN_POINT('',(-16.9788127410095,19.339715086977,3.1));
#1374=CARTESIAN_POINT('',(-16.9788127410095,15.8009558734074,3.1));
#1375=CARTESIAN_POINT('',(-28.6102351098547,19.339715086977,3.1));
#1376=CARTESIAN_POINT('Origin',(-80.6857649285668,-8.66028518124392,0.));
#1377=CARTESIAN_POINT('',(-79.1857649285668,-8.66028518124392,16.));
#1378=CARTESIAN_POINT('',(-79.1857649285668,-8.66028518124392,0.));
#1379=CARTESIAN_POINT('',(-12.7857649285668,-8.66028518124392,16.));
#1380=CARTESIAN_POINT('',(-63.3793647167164,-8.66028518124392,16.));
#1381=CARTESIAN_POINT('',(-12.7857649285668,-8.66028518124392,0.));
#1382=CARTESIAN_POINT('Origin',(-79.1857649285668,29.2397148187561,0.));
#1383=CARTESIAN_POINT('',(-79.1857649285668,27.7397148187561,16.));
#1384=CARTESIAN_POINT('',(-79.1857649285668,27.7397148187561,0.));
#1385=CARTESIAN_POINT('',(-79.1857649285668,19.3897148187561,16.));
#1386=CARTESIAN_POINT('Origin',(-11.2857649285668,27.7397148187561,0.));
#1387=CARTESIAN_POINT('',(-12.7857649285668,27.7397148187561,16.));
#1388=CARTESIAN_POINT('',(-12.7857649285668,27.7397148187561,0.));
#1389=CARTESIAN_POINT('',(-28.6793647167164,27.7397148187561,16.));
#1390=CARTESIAN_POINT('Origin',(-12.7857649285668,-10.1602851812439,0.));
#1391=CARTESIAN_POINT('',(-12.7857649285668,-0.310285181243916,16.));
#1392=CARTESIAN_POINT('',(-12.7857649285668,19.339715086977,10.5000001341105));
#1393=CARTESIAN_POINT('',(-12.7857649285668,19.339715086977,4.50000006705523));
#1394=CARTESIAN_POINT('',(-12.7857649285668,-0.660285166342757,10.5000001341105));
#1395=CARTESIAN_POINT('',(-12.7857649285668,-4.66028517379334,10.5000001341105));
#1396=CARTESIAN_POINT('',(-12.7857649285668,-0.660285166342756,2.00000006705523));
#1397=CARTESIAN_POINT('Origin',(-80.6857649285668,-10.1602851812439,-1.5));
#1398=CARTESIAN_POINT('',(-80.6857649285668,-10.1602851812439,16.));
#1399=CARTESIAN_POINT('',(-11.2857649285668,-10.1602851812439,16.));
#1400=CARTESIAN_POINT('',(-63.3793647167164,-10.1602851812439,16.));
#1401=CARTESIAN_POINT('',(-80.6857649285668,-10.1602851812439,3.));
#1402=CARTESIAN_POINT('',(-80.6857649285668,-10.1602851812439,-1.5));
#1403=CARTESIAN_POINT('',(-11.2857649285668,-10.1602851812439,3.));
#1404=CARTESIAN_POINT('',(-63.3357649285668,-10.1602851812439,3.));
#1405=CARTESIAN_POINT('',(-11.2857649285668,-10.1602851812439,-1.5));
#1406=CARTESIAN_POINT('Origin',(-11.2857649285668,17.839715086977,4.00000013411045));
#1407=CARTESIAN_POINT('',(-15.4788127410095,17.839715086977,4.00000013411045));
#1408=CARTESIAN_POINT('',(-15.4788127410095,0.839714833657244,4.00000013411045));
#1409=CARTESIAN_POINT('',(-15.4788127410095,19.9198577074013,4.00000013411045));
#1410=CARTESIAN_POINT('',(-11.2857649285668,0.839714833657244,4.00000013411045));
#1411=CARTESIAN_POINT('',(-11.2857649285668,0.839714833657244,4.00000013411045));
#1412=CARTESIAN_POINT('',(-11.2857649285668,17.839715086977,4.00000013411045));
#1413=CARTESIAN_POINT('',(-11.2857649285668,3.83971495286653,4.00000013411045));
#1414=CARTESIAN_POINT('',(-11.2857649285668,17.839715086977,4.00000013411045));
#1415=CARTESIAN_POINT('Origin',(-11.2857649285668,17.839715086977,9.00000013411045));
#1416=CARTESIAN_POINT('',(-15.4788127410095,17.839715086977,9.00000013411045));
#1417=CARTESIAN_POINT('',(-15.4788127410095,17.839715086977,12.5000000670552));
#1418=CARTESIAN_POINT('',(-11.2857649285668,17.839715086977,9.00000013411045));
#1419=CARTESIAN_POINT('',(-11.2857649285668,17.839715086977,3.00000006705523));
#1420=CARTESIAN_POINT('',(-11.2857649285668,17.839715086977,9.00000013411045));
#1421=CARTESIAN_POINT('Origin',(-46.3240931286496,9.59695683042687,13.));
#1422=CARTESIAN_POINT('',(-80.6857649285668,-9.89833116905848,13.));
#1423=CARTESIAN_POINT('',(-80.6857649285668,29.2397148187561,13.));
#1424=CARTESIAN_POINT('',(-80.6857649285668,19.4183358245915,13.));
#1425=CARTESIAN_POINT('',(-80.8601640811654,-9.8979578819222,13.));
#1426=CARTESIAN_POINT('',(-80.8601640811654,-9.8979578819222,13.));
#1427=CARTESIAN_POINT('',(-80.8601640811654,-9.8979578819222,13.));
#1428=CARTESIAN_POINT('Origin',(-11.2857649285668,0.839714833657244,9.00000013411045));
#1429=CARTESIAN_POINT('',(-15.4788127410095,0.839714833657244,9.00000013411045));
#1430=CARTESIAN_POINT('',(-15.4788127410095,11.4198575807414,9.00000013411045));
#1431=CARTESIAN_POINT('',(-11.2857649285668,0.839714833657244,9.00000013411045));
#1432=CARTESIAN_POINT('',(-11.2857649285668,-4.66028517379334,9.00000013411045));
#1433=CARTESIAN_POINT('',(-11.2857649285668,0.839714833657244,9.00000013411045));
#1434=CARTESIAN_POINT('Origin',(-11.2857649285668,0.839714833657244,4.00000013411045));
#1435=CARTESIAN_POINT('',(-15.4788127410095,0.839714833657244,10.0000000670552));
#1436=CARTESIAN_POINT('',(-11.2857649285668,0.839714833657244,0.500000067055225));
#1437=CARTESIAN_POINT('Origin',(-15.4788127410095,22.0000003278255,16.));
#1438=CARTESIAN_POINT('Origin',(-11.2857649285668,19.339715086977,9.00000013411045));
#1439=CARTESIAN_POINT('',(-16.9788127410095,19.339715086977,10.5000001341105));
#1440=CARTESIAN_POINT('',(-16.9788127410095,19.339715086977,12.5000000670552));
#1441=CARTESIAN_POINT('',(-11.2857649285668,19.339715086977,10.5000001341105));
#1442=CARTESIAN_POINT('Origin',(-11.2857649285668,0.839714833657244,10.5000001341105));
#1443=CARTESIAN_POINT('',(-16.9788127410095,-0.660285166342756,10.5000001341105));
#1444=CARTESIAN_POINT('',(-16.9788127410095,11.4198575807414,10.5000001341105));
#1445=CARTESIAN_POINT('',(-11.2857649285668,-0.660285166342757,10.5000001341105));
#1446=CARTESIAN_POINT('Origin',(-11.2857649285668,-0.660285166342757,4.00000013411045));
#1447=CARTESIAN_POINT('',(-16.9788127410095,-0.660285166342758,10.0000000670552));
#1448=CARTESIAN_POINT('Origin',(-16.9788127410095,22.0000003278255,16.));
#1449=CARTESIAN_POINT('Origin',(-45.9857649285668,9.53971481875608,3.));
#1450=CARTESIAN_POINT('',(-80.6857649285668,29.2397148187561,3.));
#1451=CARTESIAN_POINT('',(-80.6857649285668,19.3897148187561,3.));
#1452=CARTESIAN_POINT('',(-11.2857649285668,29.2397148187561,3.));
#1453=CARTESIAN_POINT('',(-28.6357649285668,29.2397148187561,3.));
#1454=CARTESIAN_POINT('',(-11.2857649285668,-0.310285181243918,3.));
#1455=CARTESIAN_POINT('Origin',(-11.2857649285668,-10.1602851812439,-1.5));
#1456=CARTESIAN_POINT('',(-11.2857649285668,29.2397148187561,16.));
#1457=CARTESIAN_POINT('',(-11.2857649285668,-0.310285181243916,16.));
#1458=CARTESIAN_POINT('',(-11.2857649285668,29.2397148187561,-1.5));
#1459=CARTESIAN_POINT('Origin',(-11.2857649285668,29.2397148187561,0.));
#1460=CARTESIAN_POINT('',(-80.6857649285668,29.2397148187561,16.));
#1461=CARTESIAN_POINT('',(-28.6793647167164,29.2397148187561,16.));
#1462=CARTESIAN_POINT('',(-80.6857649285668,29.2397148187561,0.));
#1463=CARTESIAN_POINT('',(-80.6857649285668,29.2397148187561,0.));
#1464=CARTESIAN_POINT('Origin',(-80.8601640811654,-9.8979578819222,16.));
#1465=CARTESIAN_POINT('',(-80.8601640811654,-9.8979578819222,16.));
#1466=CARTESIAN_POINT('',(-80.8165120223464,-0.101809418398235,16.));
#1467=CARTESIAN_POINT('',(-80.8601640811654,-9.8979578819222,16.));
#1468=CARTESIAN_POINT('Origin',(-11.7880221761339,-10.0458011579023,61.));
#1469=CARTESIAN_POINT('',(-80.6857649285668,-9.89833116905848,16.));
#1470=CARTESIAN_POINT('',(-28.951375306802,-10.0090644029146,16.));
#1471=CARTESIAN_POINT('',(-80.6857649285668,-9.89833116905848,30.5));
#1472=CARTESIAN_POINT('Origin',(-80.6857649285668,29.2397148187561,0.));
#1473=CARTESIAN_POINT('',(-80.6857649285668,19.3897148187561,16.));
#1474=CARTESIAN_POINT('Origin',(-46.0729645048661,9.53971481875609,16.));
#1475=CARTESIAN_POINT('Origin',(-80.6857649285668,-10.1602851812439,1.5));
#1476=CARTESIAN_POINT('',(-80.6857649285668,-10.1602851812439,16.));
#1477=CARTESIAN_POINT('',(-11.2857649285668,-10.1602851812439,16.));
#1478=CARTESIAN_POINT('',(-63.3793647167164,-10.1602851812439,16.));
#1479=CARTESIAN_POINT('',(-11.2857649285668,-10.1602851812439,19.));
#1480=CARTESIAN_POINT('',(-11.2857649285668,-10.1602851812439,1.5));
#1481=CARTESIAN_POINT('',(-80.6857649285668,-10.1602851812439,19.));
#1482=CARTESIAN_POINT('',(-18.3357649285668,-10.1602851812439,19.));
#1483=CARTESIAN_POINT('',(-80.6857649285668,-10.1602851812439,1.5));
#1484=CARTESIAN_POINT('Origin',(-11.2857649285668,-10.1602851812439,1.5));
#1485=CARTESIAN_POINT('',(-11.2857649285668,29.2397148187561,16.));
#1486=CARTESIAN_POINT('',(-11.2857649285668,-0.310285181243916,16.));
#1487=CARTESIAN_POINT('',(-11.2857649285668,29.2397148187561,19.));
#1488=CARTESIAN_POINT('',(-11.2857649285668,29.2397148187561,1.5));
#1489=CARTESIAN_POINT('',(-11.2857649285668,-0.310285181243918,19.));
#1490=CARTESIAN_POINT('Origin',(-11.2857649285668,29.2397148187561,1.5));
#1491=CARTESIAN_POINT('',(-80.6857649285668,29.2397148187561,16.));
#1492=CARTESIAN_POINT('',(-28.6793647167164,29.2397148187561,16.));
#1493=CARTESIAN_POINT('',(-80.6857649285668,29.2397148187561,19.));
#1494=CARTESIAN_POINT('',(-80.6857649285668,29.2397148187561,1.5));
#1495=CARTESIAN_POINT('',(16.3642350714332,29.2397148187561,19.));
#1496=CARTESIAN_POINT('Origin',(44.0142350714332,9.53971481875608,19.));
#1497=CARTESIAN_POINT('',(-80.6857649285668,-9.89833116905848,19.));
#1498=CARTESIAN_POINT('',(-80.6857649285668,19.3897148187561,19.));
#1499=CARTESIAN_POINT('',(-80.8601640811654,-9.8979578819222,19.));
#1500=CARTESIAN_POINT('',(-80.8156176400081,0.0989028138696278,19.));
#1501=CARTESIAN_POINT('',(16.0920181199746,-10.1054761061253,19.));
#1502=CARTESIAN_POINT('',(-15.2857641239041,24.8397151912851,19.));
#1503=CARTESIAN_POINT('Origin',(-16.6857641239041,24.8397151912851,19.));
#1504=CARTESIAN_POINT('',(-74.2857650030726,24.8397151912851,19.));
#1505=CARTESIAN_POINT('Origin',(-75.6857650030726,24.8397151912851,19.));
#1506=CARTESIAN_POINT('',(-74.2857650030726,-5.16028525574972,19.));
#1507=CARTESIAN_POINT('Origin',(-75.6857650030726,-5.16028525574972,19.));
#1508=CARTESIAN_POINT('',(-15.2857641239041,-5.16028525574972,19.));
#1509=CARTESIAN_POINT('Origin',(-16.6857641239041,-5.16028525574972,19.));
#1510=CARTESIAN_POINT('',(-22.0000003278255,16.0000002384186,19.));
#1511=CARTESIAN_POINT('',(-36.0000003278255,16.0000002384186,19.));
#1512=CARTESIAN_POINT('',(4.00711737180385,16.0000002384186,19.));
#1513=CARTESIAN_POINT('',(-22.0000003278255,2.00000023841858,19.));
#1514=CARTESIAN_POINT('',(-22.0000003278255,12.7698575285873,19.));
#1515=CARTESIAN_POINT('',(-36.0000003278255,2.00000023841858,19.));
#1516=CARTESIAN_POINT('',(11.0071173718038,2.00000023841858,19.));
#1517=CARTESIAN_POINT('',(-36.0000003278255,5.76985752858733,19.));
#1518=CARTESIAN_POINT('',(-39.0000007897615,2.00000023841858,19.));
#1519=CARTESIAN_POINT('',(-39.0000007897615,16.0000002384186,19.));
#1520=CARTESIAN_POINT('',(-39.0000007897615,12.7698575285873,19.));
#1521=CARTESIAN_POINT('',(-53.0000007897615,2.00000023841858,19.));
#1522=CARTESIAN_POINT('',(2.50711714083585,2.00000023841858,19.));
#1523=CARTESIAN_POINT('',(-53.0000007897615,16.0000002384186,19.));
#1524=CARTESIAN_POINT('',(-53.0000007897615,5.76985752858733,19.));
#1525=CARTESIAN_POINT('',(-4.49288285916415,16.0000002384186,19.));
#1526=CARTESIAN_POINT('',(-56.0000010430813,2.00000002980232,19.));
#1527=CARTESIAN_POINT('',(-56.0000010430813,16.0000002384186,19.));
#1528=CARTESIAN_POINT('',(-56.0000010430813,12.7698575285873,19.));
#1529=CARTESIAN_POINT('',(-70.0000010430813,2.00000002980232,19.));
#1530=CARTESIAN_POINT('',(-5.99288298582402,2.00000002980232,19.));
#1531=CARTESIAN_POINT('',(-70.0000010430813,16.0000002384186,19.));
#1532=CARTESIAN_POINT('',(-70.0000010430813,5.7698574242792,19.));
#1533=CARTESIAN_POINT('',(-12.992882985824,16.0000002384186,19.));
#1534=CARTESIAN_POINT('Origin',(-70.0000010430813,16.0000002384186,17.5));
#1535=CARTESIAN_POINT('',(-70.0000010430813,16.0000002384186,16.));
#1536=CARTESIAN_POINT('',(-70.0000010430813,16.0000002384186,17.5));
#1537=CARTESIAN_POINT('',(-56.0000010430813,16.0000002384186,16.));
#1538=CARTESIAN_POINT('',(-12.992882985824,16.0000002384186,16.));
#1539=CARTESIAN_POINT('',(-56.0000010430813,16.0000002384186,17.5));
#1540=CARTESIAN_POINT('Origin',(-70.0000010430813,2.00000002980232,17.5));
#1541=CARTESIAN_POINT('',(-70.0000010430813,2.00000002980232,16.));
#1542=CARTESIAN_POINT('',(-70.0000010430813,2.00000002980232,17.5));
#1543=CARTESIAN_POINT('',(-70.0000010430813,5.7698574242792,16.));
#1544=CARTESIAN_POINT('Origin',(-53.0000007897615,16.0000002384186,17.5));
#1545=CARTESIAN_POINT('',(-53.0000007897615,16.0000002384186,16.));
#1546=CARTESIAN_POINT('',(-53.0000007897615,16.0000002384186,17.5));
#1547=CARTESIAN_POINT('',(-39.0000007897615,16.0000002384186,16.));
#1548=CARTESIAN_POINT('',(-4.49288285916415,16.0000002384186,16.));
#1549=CARTESIAN_POINT('',(-39.0000007897615,16.0000002384186,17.5));
#1550=CARTESIAN_POINT('Origin',(-53.0000007897615,2.00000023841858,17.5));
#1551=CARTESIAN_POINT('',(-53.0000007897615,2.00000023841858,16.));
#1552=CARTESIAN_POINT('',(-53.0000007897615,2.00000023841858,17.5));
#1553=CARTESIAN_POINT('',(-53.0000007897615,5.76985752858733,16.));
#1554=CARTESIAN_POINT('Origin',(-36.0000003278255,2.00000023841858,17.5));
#1555=CARTESIAN_POINT('',(-36.0000003278255,2.00000023841858,16.));
#1556=CARTESIAN_POINT('',(-36.0000003278255,2.00000023841858,17.5));
#1557=CARTESIAN_POINT('',(-36.0000003278255,16.0000002384186,16.));
#1558=CARTESIAN_POINT('',(-36.0000003278255,5.76985752858733,16.));
#1559=CARTESIAN_POINT('',(-36.0000003278255,16.0000002384186,17.5));
#1560=CARTESIAN_POINT('Origin',(-22.0000003278255,2.00000023841858,17.5));
#1561=CARTESIAN_POINT('',(-22.0000003278255,2.00000023841858,16.));
#1562=CARTESIAN_POINT('',(-22.0000003278255,2.00000023841858,17.5));
#1563=CARTESIAN_POINT('',(11.0071173718038,2.00000023841858,16.));
#1564=CARTESIAN_POINT('Origin',(-80.8601640811654,-9.8979578819222,17.5));
#1565=CARTESIAN_POINT('',(-80.8601640811654,-9.8979578819222,16.));
#1566=CARTESIAN_POINT('',(-80.8165120223464,-0.101809418398235,16.));
#1567=CARTESIAN_POINT('',(-80.8601640811654,-9.8979578819222,17.5));
#1568=CARTESIAN_POINT('Origin',(-16.6857641239041,-5.16028525574972,11.));
#1569=CARTESIAN_POINT('',(-15.2857641239041,-5.16028525574972,16.));
#1570=CARTESIAN_POINT('Origin',(-16.6857641239041,-5.16028525574972,16.));
#1571=CARTESIAN_POINT('',(-15.2857641239041,-5.16028525574972,11.));
#1572=CARTESIAN_POINT('Origin',(-75.6857650030726,-5.16028525574972,11.));
#1573=CARTESIAN_POINT('',(-74.2857650030726,-5.16028525574972,16.));
#1574=CARTESIAN_POINT('Origin',(-75.6857650030726,-5.16028525574972,16.));
#1575=CARTESIAN_POINT('',(-74.2857650030726,-5.16028525574972,11.));
#1576=CARTESIAN_POINT('Origin',(-16.6857641239041,24.8397151912851,11.));
#1577=CARTESIAN_POINT('',(-15.2857641239041,24.8397151912851,16.));
#1578=CARTESIAN_POINT('Origin',(-16.6857641239041,24.8397151912851,16.));
#1579=CARTESIAN_POINT('',(-15.2857641239041,24.8397151912851,11.));
#1580=CARTESIAN_POINT('Origin',(-75.6857650030726,24.8397151912851,11.));
#1581=CARTESIAN_POINT('',(-74.2857650030726,24.8397151912851,16.));
#1582=CARTESIAN_POINT('Origin',(-75.6857650030726,24.8397151912851,16.));
#1583=CARTESIAN_POINT('',(-74.2857650030726,24.8397151912851,11.));
#1584=CARTESIAN_POINT('Origin',(-56.0000010430813,2.00000002980232,17.5));
#1585=CARTESIAN_POINT('',(-56.0000010430813,2.00000002980232,16.));
#1586=CARTESIAN_POINT('',(-56.0000010430813,2.00000002980232,17.5));
#1587=CARTESIAN_POINT('',(-5.99288298582402,2.00000002980232,16.));
#1588=CARTESIAN_POINT('Origin',(-56.0000010430813,16.0000002384186,17.5));
#1589=CARTESIAN_POINT('',(-56.0000010430813,12.7698575285873,16.));
#1590=CARTESIAN_POINT('Origin',(-39.0000007897615,2.00000023841858,17.5));
#1591=CARTESIAN_POINT('',(-39.0000007897615,2.00000023841858,16.));
#1592=CARTESIAN_POINT('',(-39.0000007897615,2.00000023841858,17.5));
#1593=CARTESIAN_POINT('',(2.50711714083585,2.00000023841858,16.));
#1594=CARTESIAN_POINT('Origin',(-39.0000007897615,16.0000002384186,17.5));
#1595=CARTESIAN_POINT('',(-39.0000007897615,12.7698575285873,16.));
#1596=CARTESIAN_POINT('Origin',(-22.0000003278255,16.0000002384186,17.5));
#1597=CARTESIAN_POINT('',(-22.0000003278255,16.0000002384186,16.));
#1598=CARTESIAN_POINT('',(-22.0000003278255,16.0000002384186,17.5));
#1599=CARTESIAN_POINT('',(-22.0000003278255,12.7698575285873,16.));
#1600=CARTESIAN_POINT('Origin',(-36.0000003278255,16.0000002384186,17.5));
#1601=CARTESIAN_POINT('',(4.00711737180385,16.0000002384186,16.));
#1602=CARTESIAN_POINT('Origin',(44.0142350714332,9.53971481875608,16.));
#1603=CARTESIAN_POINT('',(-80.6857649285668,-9.89833116905848,16.));
#1604=CARTESIAN_POINT('',(-80.6857649285668,19.3897148187561,16.));
#1605=CARTESIAN_POINT('',(-28.951375306802,-10.0090644029146,16.));
#1606=CARTESIAN_POINT('Origin',(-11.7880221761339,-10.0458011579023,62.5));
#1607=CARTESIAN_POINT('',(-80.6857649285668,-9.89833116905848,32.));
#1608=CARTESIAN_POINT('Origin',(-80.6857649285668,29.2397148187561,1.5));
#1609=UNCERTAINTY_MEASURE_WITH_UNIT(LENGTH_MEASURE(0.01),#1613,
'DISTANCE_ACCURACY_VALUE',
'Maximum model space distance between geometric entities at asserted c
onnectivities');
#1610=UNCERTAINTY_MEASURE_WITH_UNIT(LENGTH_MEASURE(0.01),#1613,
'DISTANCE_ACCURACY_VALUE',
'Maximum model space distance between geometric entities at asserted c
onnectivities');
#1611=(
GEOMETRIC_REPRESENTATION_CONTEXT(3)
GLOBAL_UNCERTAINTY_ASSIGNED_CONTEXT((#1609))
GLOBAL_UNIT_ASSIGNED_CONTEXT((#1613,#1615,#1616))
REPRESENTATION_CONTEXT('','3D')
);
#1612=(
GEOMETRIC_REPRESENTATION_CONTEXT(3)
GLOBAL_UNCERTAINTY_ASSIGNED_CONTEXT((#1610))
GLOBAL_UNIT_ASSIGNED_CONTEXT((#1613,#1615,#1616))
REPRESENTATION_CONTEXT('','3D')
);
#1613=(
LENGTH_UNIT()
NAMED_UNIT(*)
SI_UNIT(.MILLI.,.METRE.)
);
#1614=(
LENGTH_UNIT()
NAMED_UNIT(*)
SI_UNIT($,.METRE.)
);
#1615=(
NAMED_UNIT(*)
PLANE_ANGLE_UNIT()
SI_UNIT($,.RADIAN.)
);
#1616=(
NAMED_UNIT(*)
SI_UNIT($,.STERADIAN.)
SOLID_ANGLE_UNIT()
);
#1617=SHAPE_DEFINITION_REPRESENTATION(#1618,#1619);
#1618=PRODUCT_DEFINITION_SHAPE('',$,#1621);
#1619=SHAPE_REPRESENTATION('',(#1024),#1611);
#1620=PRODUCT_DEFINITION_CONTEXT('part definition',#1625,'design');
#1621=PRODUCT_DEFINITION('2026-07-22-23-07-19-402',
'Macropad (~recovered)',#1622,#1620);
#1622=PRODUCT_DEFINITION_FORMATION('',$,#1627);
#1623=PRODUCT_RELATED_PRODUCT_CATEGORY('Macropad (~recovered)',
'Macropad (~recovered)',(#1627));
#1624=APPLICATION_PROTOCOL_DEFINITION('international standard',
'automotive_design',2009,#1625);
#1625=APPLICATION_CONTEXT(
'Core Data for Automotive Mechanical Design Process');
#1626=PRODUCT_CONTEXT('part definition',#1625,'mechanical');
#1627=PRODUCT('2026-07-22-23-07-19-402','Macropad (~recovered)',$,(#1626));
#1628=PRESENTATION_STYLE_ASSIGNMENT((#1629));
#1629=SURFACE_STYLE_USAGE(.BOTH.,#1630);
#1630=SURFACE_SIDE_STYLE('',(#1631));
#1631=SURFACE_STYLE_FILL_AREA(#1632);
#1632=FILL_AREA_STYLE('Steel - Satin',(#1633));
#1633=FILL_AREA_STYLE_COLOUR('Steel - Satin',#1634);
#1634=COLOUR_RGB('Steel - Satin',0.627450980392157,0.627450980392157,0.627450980392157);
ENDSEC;
END-ISO-10303-21;
